<svg width="75" height="118" viewBox="0 0 75 118" fill="none" xmlns="http://www.w3.org/2000/svg">
<g filter="url(#filter0_d_2041_3247)">
<path fill-rule="evenodd" clip-rule="evenodd" d="M38.0119 83.3007L62.4739 108.368C62.7927 108.813 63.4948 108.547 63.4392 108.003L58.3353 57.9847C58.3155 57.7905 58.1913 57.6225 58.0113 57.5468L38.0119 49.126V83.3007Z" fill="#E23428"/>
<path d="M38.0119 83.3007V49.126L18.5388 57.5468C18.3631 57.6228 18.2415 57.7871 18.2201 57.9773L12.6094 107.964C12.548 108.51 13.2537 108.781 13.5741 108.334L38.0119 83.3007Z" fill="#012573"/>
<path d="M38.0119 83.3007V49.126M38.0119 83.3007L62.4739 108.368M38.0119 83.3007L13.5741 108.334M38.0119 49.126L18.5388 57.5468M38.0119 49.126L58.0113 57.5468M12.6094 107.964L18.2201 57.9773M12.6094 107.964C12.548 108.51 13.2537 108.781 13.5741 108.334M12.6094 107.964L12.5949 108.093C12.5374 108.605 13.1982 108.859 13.4982 108.44L13.5741 108.334M18.2201 57.9773C18.2415 57.7871 18.3631 57.6228 18.5388 57.5468M18.2201 57.9773L18.2223 57.9578C18.2423 57.7796 18.3562 57.6258 18.5207 57.5546L18.5388 57.5468M58.0113 57.5468C58.1913 57.6225 58.3155 57.7905 58.3353 57.9847M58.0113 57.5468L58.0299 57.5546C58.1984 57.6255 58.3147 57.7828 58.3333 57.9647L58.3353 57.9847M58.3353 57.9847L63.4392 108.003M63.4392 108.003C63.4948 108.547 62.7927 108.813 62.4739 108.368M63.4392 108.003L63.4522 108.13C63.5042 108.64 62.8468 108.888 62.5483 108.472L62.4739 108.368" stroke="white"/>
</g>
<g filter="url(#filter1_d_2041_3247)">
<path d="M35.2699 1.79495C36.5561 0.749297 38.3994 0.749298 39.6856 1.79495L43.323 4.75203C44.1345 5.41178 45.1985 5.67405 46.2237 5.467L50.8186 4.53898C52.4434 4.21083 54.0756 5.06747 54.7285 6.59107L56.575 10.8998C56.987 11.8611 57.8073 12.5878 58.8112 12.8809L63.3111 14.1945C64.9023 14.6591 65.9494 16.1761 65.8195 17.8286L65.4521 22.5019C65.3701 23.5445 65.7588 24.5692 66.5115 25.2953L69.8855 28.5497C71.0785 29.7004 71.3007 31.5303 70.4177 32.9332L67.9206 36.9004C67.3635 37.7856 67.2314 38.8735 67.5605 39.8662L69.0356 44.3157C69.5572 45.8891 68.9036 47.6127 67.4698 48.4445L63.4151 50.7969C62.5104 51.3217 61.8879 52.2236 61.7179 53.2556L60.9563 57.881C60.6869 59.5166 59.3072 60.7389 57.651 60.8091L52.9676 61.0077C51.9226 61.052 50.9523 61.5613 50.3222 62.3961L47.4983 66.1377C46.4997 67.4608 44.7099 67.9019 43.2109 67.1945L38.9716 65.1938C38.0257 64.7474 36.9298 64.7474 35.984 65.1938L31.7447 67.1945C30.2456 67.9019 28.4559 67.4608 27.4573 66.1377L24.6333 62.3961C24.0033 61.5613 23.0329 61.052 21.988 61.0077L17.3045 60.8091C15.6484 60.7389 14.2686 59.5166 13.9993 57.881L13.2376 53.2556C13.0677 52.2236 12.4452 51.3217 11.5405 50.7969L7.48578 48.4445C6.05198 47.6127 5.39833 45.8891 5.91994 44.3157L7.39504 39.8662C7.72415 38.8735 7.59206 37.7856 7.03493 36.9004L4.53785 32.9332C3.65485 31.5303 3.87704 29.7004 5.0701 28.5497L8.44405 25.2953C9.19681 24.5692 9.58542 23.5445 9.50345 22.5019L9.13606 17.8286C9.00614 16.1761 10.0533 14.6591 11.6445 14.1945L16.1443 12.8809C17.1483 12.5878 17.9686 11.8611 18.3806 10.8998L20.227 6.59107C20.8799 5.06746 22.5121 4.21083 24.1369 4.53898L28.7319 5.467C29.757 5.67405 30.8211 5.41178 31.6326 4.75203L35.2699 1.79495Z" fill="url(#paint0_radial_2041_3247)"/>
<path d="M35.4272 1.98926C36.6216 1.01829 38.3335 1.01829 39.5278 1.98926L43.1655 4.94629C44.0349 5.65294 45.1747 5.93365 46.2729 5.71191L50.8677 4.78418C52.3764 4.47947 53.8922 5.27477 54.4985 6.68945L56.3452 10.998C56.7866 12.0279 57.6652 12.807 58.7407 13.1211L63.2407 14.4346C64.7181 14.8659 65.6903 16.2743 65.5698 17.8086L65.2026 22.4824C65.1149 23.5995 65.5319 24.6977 66.3384 25.4756L69.7114 28.7295C70.8192 29.798 71.0262 31.4972 70.2065 32.7998L67.7095 36.7676C67.1126 37.7159 66.9701 38.8817 67.3228 39.9453L68.7983 44.3945C69.2826 45.8555 68.6756 47.4561 67.3442 48.2285L63.2896 50.5811C62.3204 51.1434 61.6533 52.1093 61.4712 53.2148L60.7095 57.8408C60.4592 59.3593 59.1778 60.4944 57.6401 60.5596L52.9565 60.7578C51.8372 60.8054 50.7975 61.3509 50.1226 62.2451L47.2983 65.9873C46.3711 67.2155 44.7097 67.6254 43.3179 66.9688L39.0786 64.9678C38.0652 64.4895 36.8908 64.4896 35.8774 64.9678L31.6382 66.9688C30.2462 67.6257 28.584 67.2158 27.6567 65.9873L24.8325 62.2451C24.1575 61.3509 23.1179 60.8053 21.9985 60.7578L17.3149 60.5596C15.7773 60.4943 14.4959 59.3593 14.2456 57.8408L13.4839 53.2148C13.3018 52.1092 12.6347 51.1433 11.6655 50.5811L7.61084 48.2285C6.27959 47.4561 5.67338 45.8555 6.15771 44.3945L7.63232 39.9453C7.98491 38.8818 7.84336 37.7159 7.24658 36.7676L4.74951 32.7998C3.92966 31.4972 4.13584 29.798 5.24365 28.7295L8.61768 25.4756C9.42418 24.6977 9.84023 23.5995 9.75244 22.4824L9.38525 17.8086C9.26484 16.2743 10.237 14.8659 11.7144 14.4346L16.2144 13.1211C17.29 12.8071 18.1685 12.028 18.6099 10.998L20.4565 6.68945C21.0628 5.27468 22.5787 4.47948 24.0874 4.78418L28.6821 5.71191C29.7805 5.93375 30.921 5.65317 31.7905 4.94629L35.4272 1.98926Z" stroke="#6F4C00" stroke-width="0.5"/>
</g>
<circle cx="37.4776" cy="34.7085" r="20.6752" fill="#DFC896" stroke="black" stroke-width="0.3"/>
<circle cx="37.4778" cy="34.7088" r="17.4714" fill="#FFFDF8" stroke="black" stroke-width="0.3"/>
<path d="M45.451 26.8367L36.3571 21.3594L25.1963 28.0503V41.3509L36.4525 48.0584L46.2617 42.1216L43.6068 40.5144L36.3571 44.8768L27.8354 39.7765V29.6413L36.4525 24.5407L44.0359 29.0999L45.451 26.8367Z" fill="#012573"/>
<path d="M29.4253 34.8072L33.5271 28.4277L35.4507 29.7232L38.4396 37.5296L47.8198 22.9829L49.7594 24.3112L38.5986 41.6952L36.993 40.6128L33.8769 32.3309L31.4127 36.1358L29.4253 34.8072Z" fill="#E23428"/>
<defs>
<filter id="filter0_d_2041_3247" x="8.09082" y="48.5825" width="59.8647" height="68.6011" filterUnits="userSpaceOnUse" color-interpolation-filters="sRGB">
<feFlood flood-opacity="0" result="BackgroundImageFix"/>
<feColorMatrix in="SourceAlpha" type="matrix" values="0 0 0 0 0 0 0 0 0 0 0 0 0 0 0 0 0 0 127 0" result="hardAlpha"/>
<feOffset dy="4"/>
<feGaussianBlur stdDeviation="2"/>
<feComposite in2="hardAlpha" operator="out"/>
<feColorMatrix type="matrix" values="0 0 0 0 0 0 0 0 0 0 0 0 0 0 0 0 0 0 0.25 0"/>
<feBlend mode="normal" in2="BackgroundImageFix" result="effect1_dropShadow_2041_3247"/>
<feBlend mode="normal" in="SourceGraphic" in2="effect1_dropShadow_2041_3247" result="shape"/>
</filter>
<filter id="filter1_d_2041_3247" x="0" y="1.01074" width="74.9556" height="74.5186" filterUnits="userSpaceOnUse" color-interpolation-filters="sRGB">
<feFlood flood-opacity="0" result="BackgroundImageFix"/>
<feColorMatrix in="SourceAlpha" type="matrix" values="0 0 0 0 0 0 0 0 0 0 0 0 0 0 0 0 0 0 127 0" result="hardAlpha"/>
<feOffset dy="4"/>
<feGaussianBlur stdDeviation="2"/>
<feComposite in2="hardAlpha" operator="out"/>
<feColorMatrix type="matrix" values="0 0 0 0 0 0 0 0 0 0 0 0 0 0 0 0 0 0 0.25 0"/>
<feBlend mode="normal" in2="BackgroundImageFix" result="effect1_dropShadow_2041_3247"/>
<feBlend mode="normal" in="SourceGraphic" in2="effect1_dropShadow_2041_3247" result="shape"/>
</filter>
<radialGradient id="paint0_radial_2041_3247" cx="0" cy="0" r="1" gradientUnits="userSpaceOnUse" gradientTransform="translate(37.4778 34.7087) rotate(88.9391) scale(28.8399)">
<stop stop-color="white"/>
<stop offset="1" stop-color="#FFF9EA"/>
</radialGradient>
</defs>
</svg>
