<svg width="456" height="472" viewBox="0 0 456 472" fill="none" xmlns="http://www.w3.org/2000/svg">
<g opacity="0.3">
<path d="M342.825 283.536C343.479 283.536 344.133 283.536 344.807 283.536C344.926 291.62 344.985 299.725 345.045 307.81C345.084 310.108 345.124 312.407 345.163 314.765C345.183 318.074 345.183 318.074 345.203 321.462C345.223 324.514 345.223 324.514 345.263 327.625C344.807 333.114 343.657 336.324 340.844 341.001C349.424 340.366 358.024 339.713 366.604 339.019C368.427 338.88 370.23 338.742 372.093 338.583C383.11 337.612 393.513 335.67 404.253 333.074C403.639 336.919 403.639 336.919 402.272 341.001C399.319 341.991 399.319 341.991 396.327 342.982C396.327 344.29 396.327 345.598 396.327 346.945C386.617 356.952 373.975 368.267 360.659 372.705C357.826 377.124 356.716 380.493 355.943 385.704C354.715 390.539 354.715 390.539 351.504 394.007C346.788 396.484 346.788 396.484 340.348 397.356C332.68 398.505 327.726 400.685 321.008 404.331C310.209 409.958 301.609 411.088 289.561 411.108C288.035 411.147 286.49 411.187 284.905 411.246C273.491 411.306 267.09 408.809 257.619 402.429C256.033 401.359 254.428 400.308 252.784 399.218C251.773 398.307 250.743 397.415 249.692 396.484C249.692 395.176 249.692 393.868 249.692 392.521C251.278 391.59 252.883 390.638 254.527 389.667C260.175 386.973 260.175 386.973 261.582 380.632C259.62 379.978 257.658 379.324 255.637 378.65C255.538 374.112 255.459 369.575 255.399 365.017C255.34 362.5 255.3 359.964 255.241 357.368C255.637 350.908 255.637 350.908 259.6 346.945C261.562 346.945 263.524 346.945 265.545 346.945C265.664 345.836 265.783 344.746 265.921 343.596C270.063 331.806 282.586 325.307 292.494 318.708C297.388 315.379 297.388 315.379 301.332 310.861C305.176 307.314 305.176 307.314 313.102 307.314C313.102 309.93 313.102 312.546 313.102 315.24C313.954 313.933 314.826 312.625 315.698 311.277C316.807 309.97 317.917 308.662 319.047 307.314C321.008 307.314 322.97 307.314 324.991 307.314C325.506 306.185 326.002 305.055 326.537 303.886C329.192 298.932 332.303 295.167 336.009 290.966C337.237 289.56 338.466 288.172 339.734 286.726C340.764 285.676 341.775 284.625 342.825 283.536Z" fill="#FCFBF6"/>
<path d="M126.836 2.1559C123.705 5.96048 120.574 9.76505 117.424 13.5498C116.096 15.1549 116.096 15.1549 114.769 16.7797C110.845 21.4958 106.922 26.0336 102.523 30.2939C98.6387 33.8211 98.6387 33.8211 97.1129 39.8053C93.0309 41.1726 93.0309 41.1726 89.1867 41.7869C93.1102 43.0947 97.0336 44.4025 101.076 45.75C87.7204 59.4821 87.7204 59.4821 78.5656 60.0171C76.0689 59.9577 73.5721 59.9181 70.9763 59.8586C68.4597 59.8388 65.9431 59.7992 63.3473 59.7595C61.4054 59.7199 59.4833 59.6605 57.4819 59.6208C56.828 64.1982 56.1741 68.7756 55.5004 73.4917C57.3234 73.1746 59.1266 72.8774 60.9893 72.5603C64.5362 71.9857 64.5362 71.9857 68.1427 71.3912C71.65 70.7968 71.65 70.7968 75.2366 70.2023C81.2605 69.5286 81.2605 69.5286 85.2236 71.5101C84.2328 73.4719 84.2328 73.4719 83.2421 75.4732C81.9342 75.4732 80.6264 75.4732 79.279 75.4732C79.279 76.7811 79.279 78.0889 79.279 79.4363C77.9711 79.4363 76.6633 79.4363 75.3159 79.4363C74.662 81.3981 74.008 83.3598 73.3343 85.381C69.2523 86.7482 69.2523 86.7482 65.4081 87.3625C65.4081 88.6703 65.4081 89.9782 65.4081 91.3256C52.6469 92.3164 52.6469 92.3164 39.648 93.3072C40.3019 96.5767 40.9558 99.8463 41.6295 103.215C41.7088 107.178 41.7286 111.141 41.6295 115.104C43.2148 113.598 44.8198 112.072 46.4645 110.527C54.0142 104.146 61.9206 101.967 71.3528 99.2518C66.7754 109.06 62.198 118.869 57.4819 128.975C59.4437 128.975 61.4054 128.975 63.4266 128.975C62.733 141.875 59.7805 150.614 51.5373 160.68C44.6019 166.189 38.4789 167.595 29.7402 168.606C29.7402 169.914 29.7402 171.222 29.7402 172.569C28.4324 172.569 27.1246 172.569 25.7771 172.569C25.7771 173.877 25.7771 175.185 25.7771 176.532C18.1085 173.084 13.4519 169.874 9.78604 162.166C4.25751 145.878 8.06209 128.777 13.8878 113.123C14.5418 113.123 15.1957 113.123 15.8694 113.123C15.9883 111.617 16.1072 110.111 16.2261 108.565C16.4044 106.603 16.5629 104.622 16.7413 102.601C16.8998 100.639 17.0583 98.697 17.2168 96.6758C17.8509 91.3256 17.8509 91.3256 19.8325 85.381C22.785 84.3902 22.785 84.3902 25.7771 83.3994C28.69 78.3465 28.69 78.3465 31.1075 72.382C32.3955 69.3701 32.3955 69.3701 33.7231 66.2987C34.3771 64.753 35.0112 63.2074 35.6849 61.6024C37.6466 61.6024 39.6083 61.6024 41.6295 61.6024C41.6295 58.9867 41.6295 56.3711 41.6295 53.6762C42.9374 53.6762 44.2452 53.6762 45.5926 53.6762C44.9387 51.0605 44.2848 48.4449 43.6111 45.75C45.5728 45.0961 47.5345 44.4422 49.5557 43.7684C49.5557 42.4606 49.5557 41.1528 49.5557 39.8053C50.705 39.7261 51.8345 39.6468 53.0234 39.5676C59.6814 36.9717 61.5837 31.8395 65.4081 25.9345C70.8574 21.2184 70.8574 21.2184 75.3159 18.0083C76.3066 23.8935 76.3066 23.8935 77.2974 29.8976C78.6052 29.8976 79.9131 29.8976 81.2605 29.8976C81.7163 28.7483 82.1522 27.599 82.6278 26.4299C85.9568 20.723 89.801 17.929 95.1314 14.0452C97.8857 12.024 97.8857 12.024 100.7 9.96321C119.544 -1.49015 119.544 -1.49015 126.836 2.1559Z" fill="#F9F5E1"/>
<path d="M380.475 18.0083C388.183 23.9926 394.048 28.8276 398.309 37.8238C398.309 39.7855 398.309 41.7473 398.309 43.7684C399.498 43.9468 400.706 44.1449 401.935 44.3431C407.226 46.067 408.613 47.9891 411.684 52.5665C412.536 53.7753 413.388 55.0038 414.26 56.272C416.143 59.6208 416.143 59.6208 416.143 63.5839C417.45 63.5839 418.758 63.5839 420.106 63.5839C420.76 67.5074 421.413 71.4309 422.087 75.4732C424.703 76.1271 427.318 76.7811 430.013 77.4548C439.564 111.537 439.564 111.537 431.995 125.012C430.687 126.974 429.379 128.935 428.032 130.957C425.079 129.966 425.079 129.966 422.087 128.975C420.462 128.975 418.837 128.975 417.153 128.975C402.331 128.975 402.331 128.975 396.228 123.03C388.401 111.339 388.401 111.339 388.401 105.196C387.093 105.196 385.785 105.196 384.438 105.196C383.784 101.927 383.13 98.6574 382.456 95.2887C385.409 94.298 385.409 94.298 388.401 93.3072C389.055 91.3454 389.709 89.3837 390.382 87.3625C388.956 86.9464 387.529 86.5501 386.043 86.134C378.632 82.5077 375.541 78.0492 370.567 71.5101C376.274 69.6078 379.88 69.3106 385.805 69.4097C388.203 69.4295 388.203 69.4295 390.66 69.4493C391.869 69.4889 393.097 69.5088 394.345 69.5286C393.474 59.9973 391.611 55.9946 384.438 49.7131C381.505 43.8477 381.763 38.1408 381.347 31.6414C381.168 29.0852 381.01 26.5488 380.831 23.9331C380.712 21.9714 380.594 20.0295 380.475 18.0083Z" fill="#FBFAEF"/>
<path d="M216.006 398.465C218.047 399.199 220.088 399.932 222.189 400.685C230.531 402.587 234.078 401.834 241.767 398.465C240.459 401.735 239.151 405.004 237.803 408.373C245.314 411.841 252.824 415.309 260.353 418.776C262.454 419.747 264.554 420.718 266.714 421.729C283.201 429.318 299.747 436.59 317.065 442.059C315.104 449.906 313.142 457.753 311.121 465.838C305.176 465.838 305.176 465.838 300.837 461.637C299.549 460.27 299.549 460.27 298.241 458.883C287.996 448.698 275.869 441.96 263.207 435.283C254.27 430.269 246.086 424.285 237.803 418.281C232.453 413.882 232.453 413.882 227.539 414.417C219.395 417.151 212.836 421.788 205.722 426.584C202.71 428.585 199.678 430.586 196.666 432.588C195.22 433.539 193.773 434.51 192.267 435.5C187.413 438.651 182.419 441.544 177.366 444.417C165.477 451.412 154.341 460.25 146.652 471.783C145.602 468.374 144.572 464.926 143.561 461.498C142.689 458.645 142.689 458.645 141.817 455.712C140.589 449.332 139.955 446.023 142.689 440.078C147.841 437.641 152.379 435.956 157.788 434.371C176.99 428.228 194.725 420.203 212.638 410.929C217.988 408.373 217.988 408.373 221.951 408.373C221.951 407.065 221.951 405.757 221.951 404.41C219.989 403.756 218.028 403.102 216.006 402.428C216.006 401.121 216.006 399.813 216.006 398.465Z" fill="#DCC997"/>
<path d="M204.117 392.521C203.661 396.147 203.661 396.147 202.135 400.447C198.311 403.32 198.311 403.32 193.595 405.777C192.049 406.59 190.503 407.422 188.898 408.274C174.057 414.991 157.63 413.763 142.411 408.75C128.065 402.765 113.996 395.196 101.076 386.576C101.076 385.268 101.076 383.96 101.076 382.613C176.791 371.477 176.791 371.477 204.117 392.521Z" fill="#E2C894"/>
<path d="M294.648 376.298C296.094 376.298 297.541 376.298 299.007 376.298C307.429 376.397 314.741 377.071 322.707 379.627C333.09 382.084 344.088 382.044 354.709 382.619C353.401 384.581 352.093 386.542 350.746 388.564C349.438 388.564 348.13 388.564 346.782 388.564C346.782 389.871 346.782 391.179 346.782 392.527C342.047 394.746 337.291 396.985 332.535 399.205C331.207 399.839 329.88 400.473 328.493 401.107C325.877 402.335 323.242 403.564 320.606 404.773C317.792 406.061 315.018 407.408 312.244 408.775C304.694 411.114 297.422 411.094 289.575 411.094C288.03 411.153 286.484 411.193 284.899 411.252C273.485 411.312 267.085 408.815 257.613 402.434C255.235 400.829 255.235 400.829 252.798 399.205C251.767 398.313 250.737 397.401 249.687 396.49C249.687 395.182 249.687 393.874 249.687 392.527C254.68 389.178 254.68 389.178 261.199 385.453C264.409 383.61 264.409 383.61 267.679 381.747C276.873 376.833 284.463 376.278 294.648 376.298Z" fill="#E2C895"/>
<path d="M19.8325 85.3809C21.7942 86.0348 23.756 86.6887 25.7771 87.3624C25.1232 89.2845 24.4693 91.2066 23.7956 93.1882C20.7044 104.186 19.6938 114.728 24.7864 125.131C25.7771 126.399 26.7481 127.667 27.7587 128.975C31.2264 128.46 34.6941 127.925 38.1618 127.37C40.0839 127.073 42.0258 126.775 44.0074 126.458C49.7935 124.952 53.0036 122.951 57.4819 119.067C58.7897 119.721 60.0976 120.375 61.445 121.049C60.1372 123.664 58.8294 126.28 57.4819 128.975C59.4437 128.975 61.4054 128.975 63.4266 128.975C62.733 141.875 59.7805 150.613 51.5373 160.68C44.6019 166.188 38.4789 167.595 29.7402 168.606C29.7402 169.914 29.7402 171.222 29.7402 172.569C28.4324 172.569 27.1246 172.569 25.7771 172.569C25.7771 173.877 25.7771 175.185 25.7771 176.532C18.1085 173.084 13.4519 169.874 9.78604 162.166C4.25751 145.878 8.06209 128.777 13.8878 113.123C14.5418 113.123 15.1957 113.123 15.8694 113.123C15.9883 111.617 16.1072 110.111 16.2261 108.565C16.4044 106.603 16.5629 104.622 16.7413 102.601C16.8998 100.639 17.0583 98.6969 17.2168 96.6757C17.8509 91.3255 17.8509 91.3255 19.8325 85.3809Z" fill="#FCFAF2"/>
<path d="M404.253 333.074C403.639 336.918 403.639 336.918 402.272 341C400.31 341.654 398.348 342.308 396.327 342.982C396.327 344.29 396.327 345.598 396.327 346.945C381.109 362.619 363.215 376.629 340.725 377.421C331.57 377.164 325.13 374.944 317.065 370.724C318.947 368.068 320.85 365.433 322.772 362.797C324.357 360.598 324.357 360.598 325.962 358.339C326.953 357.19 327.944 356.06 328.954 354.871C330.262 354.871 331.57 354.871 332.917 354.871C333.571 352.91 334.225 350.948 334.899 348.927C346.253 340.446 360.679 339.574 374.292 338.385C384.557 337.473 394.187 333.074 404.253 333.074Z" fill="#E0C895"/>
<path d="M49.5566 331.093C50.8645 331.45 52.1525 331.807 53.4999 332.183C63.0312 334.7 72.4634 336.998 82.2324 338.346C103.336 341.239 118.217 344.806 132.901 361.312C136.745 366.761 136.745 366.761 136.745 370.724C124.261 377.105 114.175 378.69 100.403 375.638C80.0329 368.901 62.3773 351.88 49.5566 335.056C49.5566 333.749 49.5566 332.441 49.5566 331.093Z" fill="#DFC896"/>
<path d="M435.958 273.628C437.94 277.591 437.94 277.591 436.949 281.118C427.774 302.202 415.746 318.351 395.713 329.726C387.39 331.866 379.107 331.39 370.567 331.093C371.26 317.182 379.405 307.988 389.273 298.893C400.231 291.402 410.971 286.171 423.415 281.614C428.21 279.493 431.896 276.917 435.958 273.628Z" fill="#E0CA9A"/>
<path d="M17.8511 273.628C19.0995 274.321 20.3478 275.015 21.6358 275.748C29.9782 280.345 38.3007 284.923 46.9204 288.985C48.149 289.56 49.3577 290.134 50.6259 290.729C54.1134 292.373 57.6208 293.998 61.1281 295.603C72.0266 302.182 78.2883 311.436 83.2422 323.167C83.2422 325.128 83.2422 327.09 83.2422 329.111C79.4773 329.21 75.7321 329.29 71.9672 329.349C69.8866 329.409 67.7861 329.448 65.6262 329.508C56.8282 328.953 51.4383 326.733 44.7209 321.066C38.261 313.635 33.0297 305.709 27.7588 297.407C26.6095 295.683 25.48 293.978 24.2911 292.215C21.1404 286.231 19.5156 280.167 17.8511 273.628Z" fill="#E0C995"/>
<path d="M150.616 313.259C168.232 319.818 182.856 330.914 193.972 346.073C197.46 356.774 196.647 367.494 196.191 378.65C182.499 377.184 175.187 371.199 166.468 360.816C162.822 353.781 160.623 346.648 158.542 339.019C157.432 335.393 156.323 331.747 155.193 328.12C154.737 326.555 154.282 324.97 153.806 323.345C152.815 319.956 151.725 316.608 150.616 313.259Z" fill="#E1C793"/>
<path d="M301.213 313.259C302.521 313.913 303.829 314.567 305.176 315.24C304.641 316.33 304.126 317.4 303.591 318.51C299.905 326.377 296.893 333.689 295.268 342.229C291.722 359.251 284.211 366.503 270.182 376.094C265.545 378.65 265.545 378.65 259.601 378.65C258.491 360.182 259.838 348.293 271.728 333.946C280.783 326.258 290.552 318.589 301.213 313.259Z" fill="#DEC892"/>
<path d="M3.98035 218.145C10.4006 220.285 11.3121 221.335 15.2554 226.448C20.8235 233.225 26.8672 238.159 34.0405 243.192C41.2731 248.562 44.9192 253.04 47.5744 261.739C48.4463 267.664 49.0606 273.609 49.556 279.573C38.8556 279.315 30.5529 278.642 22.488 270.775C9.72684 255.894 3.28681 237.881 3.98035 218.145Z" fill="#E1C890"/>
<path d="M451.811 218.145C450.622 236.415 446.302 258.608 431.896 271.251C430.41 272.241 428.944 273.232 427.418 274.243C425.219 275.768 425.219 275.768 422.979 277.314C417.094 280.049 412.656 279.969 406.235 279.573C409.881 252.247 409.881 252.247 420.225 243.152C427.101 237.961 427.101 237.961 431.995 237.961C431.995 236.653 431.995 235.345 431.995 233.997C433.303 233.997 434.611 233.997 435.959 233.997C435.959 232.69 435.959 231.382 435.959 230.034C438.931 227.042 438.931 227.042 442.775 223.852C444.043 222.782 445.292 221.712 446.6 220.602C449.829 218.145 449.829 218.145 451.811 218.145Z" fill="#DEC796"/>
<path d="M110.985 283.536C119.268 289.976 124.935 295.623 130.424 304.718C131.593 306.601 132.742 308.483 133.931 310.425C139.598 320.115 139.698 327.883 138.727 339.019C137.181 344.647 135.16 349.521 132.782 354.871C122.161 346.906 114.155 339.178 112.154 325.505C111.738 319.144 111.56 312.823 111.48 306.442C111.421 304.243 111.361 302.043 111.302 299.765C111.163 294.355 111.064 288.945 110.985 283.536Z" fill="#DEC999"/>
<path d="M342.826 283.536C347.562 300.26 345.798 323.286 338.11 338.9C334.979 344.349 331.571 348.59 326.974 352.89C325.012 352.236 323.05 351.582 321.029 350.908C315.679 339.911 314.926 326.852 318.215 315.102C323.724 302.697 333.552 293.206 342.826 283.536Z" fill="#DFC896"/>
<path d="M449.828 160.679C450.482 160.679 451.136 160.679 451.81 160.679C456.169 177.562 454.148 194.068 447.846 210.218C443.507 217.47 438.216 223.336 430.012 226.07C428.051 226.07 426.089 226.07 424.068 226.07C423.196 208.454 423.889 194.98 435.838 181.367C437.364 179.702 437.364 179.702 438.929 177.998C443.507 172.687 446.558 166.862 449.828 160.679Z" fill="#DFCA90"/>
<path d="M3.98116 160.679C8.71706 166.941 13.3539 173.282 17.9709 179.623C19.3382 181.505 20.7252 183.388 22.1321 185.33C28.8694 194.702 30.1971 199.002 29.9791 210.594C29.9593 213.111 29.9196 215.628 29.88 218.223C29.8206 221.136 29.8206 221.136 29.7413 224.089C18.9022 223.157 18.9022 223.157 14.2258 218.501C2.79223 199.954 0.751231 184.398 1.99961 162.661C2.65352 162.007 3.30743 161.353 3.98116 160.679Z" fill="#DFC996"/>
<path d="M83.2436 249.85C91.2689 256.349 93.944 266.098 97.1144 275.61C98.3232 287.658 97.0946 296.733 91.1698 307.315C86.8302 311.159 86.8302 311.159 83.2436 313.259C75.7732 305.789 75.0202 295.802 74.7031 285.636C74.8418 277.314 76.5262 270.854 79.8155 263.245C81.6187 258.885 82.5104 254.506 83.2436 249.85Z" fill="#DFC996"/>
<path d="M370.567 249.85C371.221 249.85 371.875 249.85 372.548 249.85C372.945 251.673 373.361 253.476 373.777 255.339C374.312 257.697 374.847 260.055 375.402 262.492C375.917 264.83 376.452 267.168 377.007 269.586C378.216 275.392 378.216 275.392 380.475 279.573C381.327 291.779 379.781 300.181 374.53 311.278C372.568 311.932 370.606 312.585 368.585 313.259C359.708 300.379 356.736 291.125 358.677 275.61C365.474 254.942 365.474 254.942 370.567 249.85Z" fill="#D9CAA3"/>
<path d="M13.8878 113.122C18.1878 117.422 18.9606 119.7 20.7044 125.387C22.5274 131.253 24.4891 136.385 27.1444 141.973C31.7812 154.12 30.6121 164.424 25.7771 176.531C18.1085 173.083 13.4519 169.873 9.78604 162.165C4.25751 145.877 8.06209 128.776 13.8878 113.122Z" fill="#E0C898"/>
<path d="M439.922 117.085C443.885 119.067 443.885 119.067 446.105 124.635C449.414 137.396 449.731 151.188 445.49 163.652C441.567 169.061 437.465 172.688 431.996 176.532C425.1 168.645 424.962 162.839 425.199 152.654C426.369 144.629 429.4 138.526 433.403 131.531C436.038 126.835 438.02 122.119 439.922 117.085Z" fill="#DFC998"/>
<path d="M388.402 212.2C389.254 213.349 390.106 214.478 390.978 215.667C393.098 218.481 395.278 221.255 397.537 223.97C406.91 236.196 408.099 246.56 406.236 261.738C405.582 263.046 404.928 264.354 404.254 265.702C395.258 261.362 389.432 258.053 385.568 248.403C382.972 238.039 382.18 225.357 386.46 215.449C387.411 213.844 387.411 213.844 388.402 212.2Z" fill="#DCCB9D"/>
<path d="M65.4083 208.237C72.3636 215.192 71.3133 226.467 71.67 235.959C71.6304 244.479 69.6885 250.206 64.3779 256.943C60.4545 260.708 56.4715 263.443 51.5375 265.702C47.9311 254.902 48.0301 243.865 52.1518 233.244C55.5006 228.052 55.5006 228.052 58.5918 224.089C62.1784 219.116 63.6844 214.082 65.4083 208.237Z" fill="#DDC794"/>
<path d="M216.007 398.465C218.048 399.199 220.089 399.932 222.189 400.685C230.531 402.587 234.078 401.834 241.767 398.465C240.459 401.735 239.151 405.004 237.804 408.373C241.727 410.335 245.651 412.297 249.693 414.318C247.731 416.279 245.769 418.241 243.748 420.262C242.322 419.648 240.895 419.034 239.409 418.4C233.999 416.359 229.679 414.833 223.933 414.318C219.078 416.735 219.078 416.735 214.52 420.5C205.485 427.277 196.27 432.865 186.283 438.096C186.283 436.788 186.283 435.481 186.283 434.133C187.591 434.133 188.899 434.133 190.246 434.133C190.246 431.518 190.246 428.902 190.246 426.207C189.097 427.237 187.968 428.248 186.779 429.298C182.32 432.152 182.32 432.152 177.862 431.537C176.712 431.082 175.583 430.626 174.394 430.17C182.717 424.86 191.356 420.936 200.392 417.052C201.819 416.418 203.245 415.804 204.692 415.17C210.399 412.693 216.046 410.335 221.951 408.373C221.951 407.065 221.951 405.757 221.951 404.41C219.989 403.756 218.028 403.102 216.007 402.428C216.007 401.121 216.007 399.813 216.007 398.465Z" fill="#DACBA3"/>
<path d="M126.837 2.15512C123.746 5.92006 120.655 9.66519 117.543 13.4301C116.691 14.4804 115.82 15.5306 114.928 16.6006C100.344 34.2166 100.344 34.2166 93.1506 37.823C88.5336 37.9023 83.8968 37.9023 79.2798 37.823C79.4185 31.7595 79.9535 27.4199 84.0553 22.783C87.6419 19.6918 91.3078 16.8384 95.1322 14.0444C97.0543 12.6177 98.9764 11.191 100.958 9.70482C119.723 -1.39185 119.723 -1.39185 126.837 2.15512Z" fill="#DEC99A"/>
<path d="M424.068 77.4546C432.411 84.8656 434.927 94.6346 436.611 105.434C437.186 116.214 433.798 122.317 428.031 130.956C422.087 128.975 422.087 128.975 419.768 124.536C414.933 108.446 418.46 92.8512 424.068 77.4546Z" fill="#DDCA9C"/>
<path d="M29.7417 77.4546C36.9942 89.8789 39.4711 104.879 37.6679 119.067C34.6956 126.121 34.6956 126.121 31.7233 130.956C25.7786 128.975 25.7786 128.975 22.4298 125.012C16.8022 112.152 19.5367 100.084 24.0943 87.2633C25.7786 83.3992 25.7786 83.3992 29.7417 77.4546Z" fill="#DFC89C"/>
<path d="M328.954 0.173828C333.531 1.48165 338.109 2.78947 342.825 4.13693C342.825 5.44475 342.825 6.75257 342.825 8.10003C344.45 8.55578 346.095 8.99172 347.779 9.46729C357.746 13.2124 366.96 18.3645 374.53 25.934C374.768 32.1164 374.768 32.1164 374.53 37.8233C368.288 38.8339 364.701 39.3094 358.677 37.8233C352.376 32.6712 347.719 26.4492 342.825 19.9893C341.477 18.305 340.13 16.6405 338.743 14.8967C328.954 2.63095 328.954 2.63095 328.954 0.173828Z" fill="#DEC898"/>
<path d="M394.346 166.624C395.416 168.051 396.466 169.477 397.556 170.964C402.609 176.928 408.157 181.466 414.161 186.44C419.809 192.602 420.8 196.466 420.483 204.769C420.423 206.532 420.364 208.296 420.324 210.119C420.245 211.466 420.185 212.794 420.106 214.181C410.218 211.704 405.898 208.831 400.291 200.31C398.567 197.734 398.567 197.734 396.823 195.119C393.296 185.607 393.87 176.651 394.346 166.624Z" fill="#DFC698"/>
<path d="M59.4635 166.624C60.1174 166.624 60.7714 166.624 61.4451 166.624C62.317 179.742 61.0884 195.158 52.7461 205.819C47.4157 210.456 42.4817 212.735 35.6849 214.181C34.9518 204.888 34.7338 198.23 39.0338 189.788C43.4922 184.577 48.1687 180.792 53.5189 176.532C55.5797 173.282 57.6009 169.993 59.4635 166.624Z" fill="#DDCA9C"/>
<path d="M51.5378 43.7686C52.1917 43.7686 52.8456 43.7686 53.5193 43.7686C53.7373 49.0989 53.8958 54.4095 54.0147 59.7398C54.1138 61.979 54.1138 61.979 54.2129 64.2578C54.411 75.5922 51.9341 81.9332 45.5931 91.3257C41.7489 89.8594 41.7489 89.8594 37.6669 87.3626C34.2388 78.3268 35.2098 69.3702 38.5388 60.4928C39.5494 58.2339 40.5798 55.9947 41.63 53.6763C42.9378 53.6763 44.2457 53.6763 45.5931 53.6763C46.2074 52.4081 46.8217 51.1399 47.4558 49.8321C49.5562 45.7501 49.5562 45.7501 51.5378 43.7686Z" fill="#DCC99A"/>
<path d="M73.3346 25.9351C75.2963 27.2429 77.2581 28.5507 79.2793 29.8982C79.2793 32.5138 79.2793 35.1294 79.2793 37.8244C88.0971 36.8336 88.0971 36.8336 97.1132 35.8428C97.1132 37.1506 97.1132 38.4584 97.1132 39.8059C94.4976 40.4598 91.8819 41.1137 89.187 41.7875C93.1105 43.0953 97.0339 44.4031 101.076 45.7505C87.7405 59.4629 87.7405 59.4629 79.4378 60.0177C77.2977 59.9583 75.1576 59.9186 72.9581 59.8592C70.818 59.8394 68.6582 59.7997 66.4388 59.7601C63.9619 59.7007 63.9619 59.7007 61.4453 59.6214C63.0306 57.7389 64.6356 55.8564 66.2803 53.9145C72.6609 45.1561 73.0968 36.5363 73.3346 25.9351Z" fill="#F8F5E7"/>
<path d="M402.271 43.7686C412.595 53.8546 418.381 61.0873 418.876 75.8498C418.936 84.4101 418.936 84.4101 415.111 88.9479C414.14 89.7405 413.169 90.5133 412.178 91.3257C402.588 82.171 402.588 82.171 401.815 75.4932C401.835 74.0268 401.855 72.5605 401.874 71.0545C401.894 69.4692 401.914 67.8642 401.914 66.2393C401.954 64.5748 401.993 62.9301 402.033 61.226C402.033 59.5615 402.053 57.8772 402.073 56.1532C402.132 52.0316 402.191 47.8902 402.271 43.7686Z" fill="#E0C894"/>
<path d="M61.4459 128.975C64.656 137.911 61.4063 143.717 57.8197 152.079C53.9953 159.708 50.1114 163.414 42.5023 167.119C37.6673 168.606 37.6673 168.606 31.7227 168.606C35.1706 151.326 35.1706 151.326 43.612 144.827C52.5289 138.882 52.5289 138.882 57.4828 138.882C58.7906 135.613 60.0984 132.343 61.4459 128.975Z" fill="#DCCDA7"/>
<path d="M31.7225 198.329C33.0303 198.329 34.3381 198.329 35.6856 198.329C36.0621 209.287 35.1902 217.669 31.7225 228.052C28.4529 228.052 25.1834 228.052 21.8147 228.052C21.8147 229.36 21.8147 230.667 21.8147 232.015C24.4304 232.669 27.046 233.323 29.7409 233.997C29.087 235.958 28.4331 237.92 27.7594 239.941C24.7672 237.405 21.8147 234.829 18.8424 232.253C17.1779 230.846 15.5332 229.419 13.8291 227.953C12.5411 226.665 11.2531 225.397 9.92545 224.089C9.92545 222.781 9.92545 221.473 9.92545 220.126C8.61762 220.126 7.3098 220.126 5.96235 220.126C6.61626 227.319 7.27017 234.512 7.9439 241.923C6.63607 241.923 5.32825 241.923 3.9808 241.923C-0.933444 223.276 -0.933444 223.276 1.99925 214.181C3.30707 214.181 4.61489 214.181 5.96235 214.181C5.96235 210.911 5.96235 207.642 5.96235 204.273C13.5913 213.428 13.5913 213.428 15.6323 218.639C17.7526 222.84 17.7526 222.84 24.0341 223.593C25.9165 223.752 27.799 223.93 29.7409 224.089C29.7211 222.404 29.7013 220.7 29.6617 218.957C29.6617 216.777 29.6419 214.577 29.622 212.318C29.6022 210.139 29.5626 207.959 29.5428 205.7C29.7409 200.31 29.7409 200.31 31.7225 198.329Z" fill="#FAF6E6"/>
<path d="M392.364 130.957C396.327 133.691 396.327 133.691 400.29 136.901C400.29 138.209 400.29 139.517 400.29 140.864C401.36 140.983 402.411 141.102 403.501 141.241C410.317 143.559 415.588 147.225 420.106 152.754C421.85 160.303 421.85 160.303 422.087 166.624C416.896 167.496 416.896 167.496 410.198 166.624C401.162 159.352 396.03 149.682 392.364 138.883C392.364 136.267 392.364 133.651 392.364 130.957Z" fill="#DECDA7"/>
<path d="M380.475 18.0083C390.184 25.0824 396.803 32.0179 400.29 43.7684C400.33 48.8412 399.557 52.6656 398.309 57.6393C392.364 57.6393 392.364 57.6393 388.163 53.914C381.763 46.6813 381.941 41.1726 381.346 31.6414C381.168 29.0852 381.01 26.5488 380.831 23.9331C380.712 21.9714 380.594 20.0295 380.475 18.0083Z" fill="#DBCBA1"/>
<path d="M73.335 18.0083C76.129 27.4405 75.7723 36.2386 73.335 45.75C69.9465 51.0605 66.0627 55.3605 61.4457 59.6208C57.0863 55.6577 55.6199 54.3301 54.5103 48.3458C56.3729 36.0008 64.1208 26.2119 73.335 18.0083Z" fill="#DFCA9B"/>
<path d="M370.567 263.72C371.221 263.72 371.875 263.72 372.548 263.72C376.512 276.877 380.217 292.888 374.49 305.986C373.856 307.076 373.202 308.166 372.548 309.295C366.604 305.332 366.604 305.332 365.732 301.548C365.653 300.141 365.573 298.734 365.494 297.287C365.197 294.711 364.92 292.135 364.622 289.48C363.314 288.826 362.007 288.172 360.659 287.498C361.828 281.514 363.096 275.569 364.622 269.664C366.584 269.664 368.546 269.664 370.567 269.664C370.567 267.703 370.567 265.741 370.567 263.72Z" fill="#E0C98F"/>
<path d="M196.191 388.558C200.391 390.42 200.391 390.42 204.117 392.521C203.661 396.147 203.661 396.147 202.135 400.447C198.311 403.32 198.311 403.32 193.595 405.777C192.049 406.59 190.503 407.422 188.898 408.274C173.284 415.328 157.114 413.188 141.163 408.274C136.407 406.253 132.801 403.697 128.818 400.447C142.193 402.191 142.193 402.191 146.652 404.41C149.446 404.608 152.26 404.668 155.073 404.668C156.718 404.668 158.383 404.687 160.087 404.687C161.83 404.668 163.574 404.668 165.358 404.648C167.082 404.668 168.806 404.668 170.589 404.687C172.253 404.687 173.918 404.668 175.622 404.668C177.148 404.668 178.674 404.668 180.239 404.668C184.698 404.569 184.698 404.569 190.246 402.428C190.484 400.506 190.741 398.584 190.999 396.603C191.593 393.611 191.593 393.611 192.227 390.539C193.535 389.885 194.843 389.231 196.191 388.558Z" fill="#DDCCA5"/>
<path d="M67.3893 99.2515C68.6971 99.9054 70.0049 100.559 71.3524 101.233C61.3653 121.504 61.3653 121.504 51.5369 125.012C43.9872 125.388 43.9872 125.388 37.666 125.012C40.3411 115.619 45.5526 110.467 53.5184 105.196C58.1354 102.699 62.3958 100.975 67.3893 99.2515Z" fill="#DECAA2"/>
<path d="M437.94 180.495C439.169 184.22 439.169 184.22 439.922 188.421C438.614 189.729 437.306 191.037 435.958 192.384C435.047 196.288 435.047 196.288 434.73 200.548C434.353 204.353 434.353 204.353 433.977 208.237C435.285 208.891 436.593 209.545 437.94 210.218C434.67 210.872 431.401 211.526 428.032 212.2C428.032 213.508 428.032 214.816 428.032 216.163C432.61 216.163 437.187 216.163 441.903 216.163C436.176 222.742 432.61 224.723 424.069 226.071C423.277 209.921 423.177 196.229 434.353 183.467C435.542 182.477 436.711 181.506 437.94 180.495Z" fill="#E3C699"/>
<path d="M386.419 101.233C398.745 104.185 408.157 106.524 416.143 117.085C417.748 121.663 417.748 121.663 418.124 125.011C403.837 126.22 403.837 126.22 396.704 120.672C386.419 107.455 386.419 107.455 386.419 101.233Z" fill="#DECEAB"/>
<path d="M370.567 69.5283C392.919 73.214 392.919 73.214 400.29 79.4361C402.886 84.7664 402.886 84.7664 404.253 89.3438C392.899 90.2553 387.311 88.6701 378.493 81.4176C370.567 72.4412 370.567 72.4412 370.567 69.5283Z" fill="#DECBA5"/>
<path d="M321.028 372.705C322.356 373.022 323.704 373.359 325.071 373.696C331.947 374.865 338.446 374.885 345.421 374.806C347.918 374.786 350.395 374.766 352.951 374.766C354.853 374.726 356.736 374.706 358.678 374.687C355.785 389.35 355.785 389.35 351.128 394.502C346.036 396.821 342.409 396.939 336.881 396.484C342.825 392.521 342.825 392.521 346.789 392.521C346.789 391.213 346.789 389.905 346.789 388.557C348.75 387.25 350.712 385.942 352.733 384.594C350.078 384.456 350.078 384.456 347.383 384.297C345.065 384.158 342.746 384 340.349 383.841C338.05 383.722 335.751 383.584 333.373 383.425C327.548 382.692 324.001 381.662 319.047 378.65C319.701 376.688 320.355 374.726 321.028 372.705Z" fill="#FBF7E6"/>
<path d="M75.3162 295.425C78.8433 300.716 81.023 305.392 83.2424 311.277C85.858 309.969 88.4736 308.662 91.1686 307.314C90.9506 310.168 90.693 313.021 90.4156 315.855C90.2967 317.44 90.158 319.025 89.9994 320.67C89.187 325.148 89.187 325.148 85.2239 331.093C80.0322 331.469 80.0322 331.469 75.3162 331.093C75.3162 333.054 75.3162 335.016 75.3162 337.037C77.2779 337.691 79.2396 338.345 81.2608 339.019C76.0295 338.365 70.7982 337.711 65.4084 337.037C66.0623 335.73 66.7162 334.422 67.39 333.074C65.4282 331.766 63.4665 330.459 61.4453 329.111C68.6383 329.111 75.8314 329.111 83.2424 329.111C82.0138 326.337 80.7852 323.543 79.517 320.69C78.8433 319.124 78.1498 317.559 77.4364 315.954C75.3954 311.277 75.3954 311.277 72.9581 306.997C72.4231 305.808 71.9079 304.599 71.3531 303.351C73.0968 298.893 73.0968 298.893 75.3162 295.425Z" fill="#F9EFDA"/>
<path d="M81.2608 69.5283C82.5687 70.1822 83.8765 70.8361 85.2239 71.5099C84.57 72.8177 83.9161 74.1255 83.2424 75.473C81.9346 75.473 80.6267 75.473 79.2793 75.473C79.2793 76.7808 79.2793 78.0886 79.2793 79.4361C77.9715 79.4361 76.6636 79.4361 75.3162 79.4361C74.6623 81.3978 74.0084 83.3595 73.3346 85.3807C66.4983 90.3742 59.7214 89.6609 51.5376 89.3438C53.3606 83.2208 54.7873 80.0107 59.8403 75.9684C66.32 73.0951 72.2646 72.3223 79.2793 71.5099C79.9332 70.856 80.5871 70.202 81.2608 69.5283Z" fill="#DBCBA4"/>
<path d="M216.006 398.465C218.047 399.199 220.088 399.932 222.189 400.685C230.531 402.587 234.078 401.834 241.766 398.465C240.459 401.735 239.151 405.004 237.803 408.373C241.727 410.335 245.65 412.297 249.693 414.318C247.731 416.279 245.769 418.241 243.748 420.262C242.321 419.648 240.895 419.034 239.408 418.4C234.197 416.438 229.461 415.071 223.933 414.318C221.971 415.309 221.971 415.309 219.969 416.299C219.969 414.991 219.969 413.684 219.969 412.336C218.662 411.682 217.354 411.028 216.006 410.355C217.968 409.701 219.93 409.047 221.951 408.373C221.951 407.065 221.951 405.757 221.951 404.41C219.989 403.756 218.028 403.102 216.006 402.428C216.006 401.121 216.006 399.813 216.006 398.465Z" fill="#DFD1B1"/>
<path d="M250.436 395.865C256.163 398.738 260.581 402.345 265.535 406.387C272.907 408.844 280.04 409.082 287.709 409.498C289.195 409.577 290.681 409.657 292.207 409.756C295.873 409.954 299.539 410.152 303.185 410.35C303.185 411.004 303.185 411.658 303.185 412.332C269.241 416.493 269.241 416.493 253.646 406.387C252.338 404.425 251.05 402.464 249.683 400.442C246.75 405.357 246.75 405.357 243.738 410.35C245.72 410.35 247.681 410.35 249.683 410.35C249.049 411.658 248.375 412.966 247.701 414.313C243.778 412.352 239.874 410.39 235.812 408.369C237.437 402.563 237.437 402.563 239.775 396.479C245.72 394.498 245.72 394.498 250.436 395.865Z" fill="#F9F5E3"/>
<path d="M453.792 180.495C454.446 180.495 455.1 180.495 455.773 180.495C456.467 193.415 455.853 202.649 449.829 214.181C451.136 214.181 452.444 214.181 453.792 214.181C455.04 235.939 455.04 235.939 449.829 244.4C448.521 245.549 447.213 246.679 445.866 247.868C446.143 246.243 446.44 244.598 446.737 242.914C447.946 235.325 448.917 227.755 449.829 220.126C447.213 222.088 444.597 224.05 441.902 226.071C440.416 222.98 440.416 222.98 439.921 218.145C441.784 214.954 443.646 211.784 445.628 208.653C450.066 199.894 451.711 190.066 453.792 180.495Z" fill="#FBF5E3"/>
<path d="M11.9067 253.812C19.8329 263.224 19.8329 263.224 19.8329 267.683C21.7947 268.337 23.7564 268.991 25.7776 269.664C25.7776 270.972 25.7776 272.28 25.7776 273.628C37.548 276.58 37.548 276.58 49.5562 279.572C48.9023 281.534 48.2484 283.496 47.5746 285.517C52.152 287.479 56.7294 289.44 61.4455 291.461C61.4455 292.769 61.4455 294.077 61.4455 295.425C40.8374 289.777 40.8374 289.777 31.7222 283.535C29.8794 282.544 28.0365 281.574 26.1541 280.563C24.7274 279.572 23.2808 278.601 21.8145 277.591C21.8145 275.629 21.8145 273.667 21.8145 271.646C19.0998 268.594 19.0998 268.594 15.8698 265.701C11.9067 259.757 11.9067 259.757 11.9067 253.812Z" fill="#FEF7EB"/>
<path d="M3.98179 218.145C10.402 220.285 11.3135 221.335 15.2568 226.448C20.825 233.225 26.8687 238.159 34.0419 243.192C37.5889 245.827 40.581 248.641 43.6128 251.831C42.9589 253.139 42.3049 254.447 41.6312 255.794C39.0156 255.141 36.3999 254.487 33.705 253.813C33.4078 251.911 33.4078 251.911 33.0907 249.969C32.635 248.621 32.1792 247.274 31.7235 245.887C29.7617 245.233 27.8 244.579 25.7788 243.905C22.3904 240.675 19.0812 237.386 15.8711 233.997C13.9093 234.651 11.9476 235.305 9.92644 235.979C8.4799 239.982 8.4799 239.982 7.94489 243.905C3.40714 227.201 3.40714 227.201 3.98179 218.145Z" fill="#DCCCA7"/>
<path d="M168.449 362.798C169.955 364.007 169.955 364.007 171.501 365.255C180.497 372.329 180.497 372.329 190.999 376.669C192.703 377.323 194.427 377.977 196.191 378.65C198.489 384.714 198.489 384.714 200.154 390.54C198.707 389.707 197.281 388.875 195.794 388.003C181.171 380.057 169.222 376.728 152.597 376.669C152.597 375.361 152.597 374.053 152.597 372.706C161.415 371.715 161.415 371.715 170.431 370.724C169.777 368.108 169.123 365.493 168.449 362.798Z" fill="#FBF7E4"/>
<path d="M5.96212 134.919C6.61603 134.919 7.26994 134.919 7.94367 134.919C8.02293 136.346 8.08238 137.793 8.16164 139.279C9.19205 154.398 12.1644 164.583 21.8145 176.532C21.1606 177.84 20.5067 179.148 19.833 180.495C21.1408 180.495 22.4486 180.495 23.7961 180.495C23.7961 182.457 23.7961 184.419 23.7961 186.44C26.4117 187.748 29.0274 189.055 31.7223 190.403C30.4144 192.365 29.1066 194.326 27.7592 196.347C26.3919 194.406 25.0444 192.483 23.6375 190.482C21.8343 187.946 20.0311 185.389 18.2279 182.853C16.8805 180.931 16.8805 180.931 15.5132 178.989C14.2054 177.146 14.2054 177.146 12.8579 175.264C12.0653 174.114 11.2529 172.985 10.4404 171.836C8.00312 168.487 8.00312 168.487 4.6543 165.713C1.99902 162.661 1.99902 162.661 1.99902 154.735C3.30685 154.735 4.61467 154.735 5.96212 154.735C5.96212 148.196 5.96212 141.657 5.96212 134.919Z" fill="#FBF8E6"/>
<path d="M150.616 313.259C157.789 315.894 163.773 319.085 170.055 323.404C171.62 324.474 173.186 325.544 174.81 326.654C175.98 327.466 177.149 328.279 178.357 329.111C175.742 329.765 173.126 330.419 170.431 331.093C169.777 329.785 169.123 328.477 168.45 327.13C166.488 326.476 164.526 325.822 162.505 325.148C163.813 333.649 165.121 342.15 166.468 350.908C165.16 350.908 163.852 350.908 162.505 350.908C161.475 347.579 161.475 347.579 160.405 344.191C159.493 341.258 158.582 338.345 157.67 335.432C157.214 333.966 156.759 332.5 156.303 330.994C154.44 325.069 152.577 319.144 150.616 313.259Z" fill="#DCCCA1"/>
<path d="M449.829 160.679C450.482 160.679 451.136 160.679 451.81 160.679C456.15 177.503 454.129 194.108 447.847 210.218C446.539 210.872 445.231 211.526 443.884 212.199C444.201 210.793 444.518 209.386 444.855 207.939C445.885 202.232 446.202 196.942 446.242 191.155C446.262 189.273 446.301 187.41 446.321 185.488C446.222 179.999 446.222 179.999 441.902 174.55C444.518 169.973 447.134 165.395 449.829 160.679Z" fill="#DDC79C"/>
<path d="M356.696 45.75C378.354 46.1661 378.354 46.1661 384.814 52.8043C386.578 55.202 386.578 55.202 388.401 57.6393C382.238 60.7107 377.383 60.1955 370.567 59.6208C359.311 53.5771 359.311 53.5771 356.696 45.75Z" fill="#D9CFAC"/>
<path d="M342.826 291.462C343.48 291.462 344.134 291.462 344.807 291.462C344.926 298.239 344.986 304.996 345.045 311.773C345.105 314.646 345.105 314.646 345.164 317.579C345.164 319.441 345.184 321.284 345.204 323.206C345.224 324.891 345.243 326.595 345.263 328.358C344.768 333.431 343.4 336.641 340.844 341.001C342.806 342.308 344.768 343.616 346.789 344.964C344.986 345.776 343.202 346.589 341.34 347.441C335.296 350.69 331.511 353.782 326.973 358.835C326.32 357.527 325.666 356.219 324.992 354.871C323.684 354.871 322.376 354.871 321.029 354.871C323.01 350.908 323.01 350.908 326.755 349.165C335.256 344.627 338.11 335.968 340.844 327.13C342.529 315.32 342.687 303.371 342.826 291.462Z" fill="#FDF7E8"/>
<path d="M445.866 156.717C448.481 157.371 451.097 158.025 453.792 158.698C453.792 162.622 453.792 166.545 453.792 170.588C452.484 168.626 451.176 166.664 449.829 164.643C449.056 165.852 448.303 167.08 447.51 168.329C445.965 170.746 445.965 170.746 444.38 173.183C443.369 174.769 442.358 176.354 441.308 177.999C437.94 182.477 434.65 185.311 430.013 188.422C430.667 185.152 431.321 181.882 431.995 178.514C430.033 177.86 428.071 177.206 426.05 176.532C426.704 173.917 427.358 171.301 428.032 168.606C429.994 171.559 429.994 171.559 431.995 174.551C439.406 169.28 443.191 165.475 445.866 156.717Z" fill="#F9F6E4"/>
<path d="M9.92578 243.904C11.2336 243.904 12.5414 243.904 13.8889 243.904C15.2165 246.797 16.5442 249.69 17.852 252.583C18.9616 254.981 18.9616 254.981 20.0713 257.458C21.8151 261.738 21.8151 261.738 21.8151 265.701C27.7003 266.692 27.7003 266.692 33.7044 267.683C33.7044 270.299 33.7044 272.914 33.7044 275.609C37.6278 276.263 41.5513 276.917 45.5937 277.591C45.5937 272.359 45.5937 267.128 45.5937 261.738C46.2476 261.738 46.9015 261.738 47.5752 261.738C48.2291 267.623 48.883 273.509 49.5568 279.572C30.7122 278.72 30.7122 278.72 22.5086 270.834C15.2363 262.273 9.92578 255.358 9.92578 243.904Z" fill="#DCCBA8"/>
<path d="M87.5765 47.4842C89.3599 47.5238 91.1433 47.5635 92.9862 47.5833C94.3534 47.6427 95.7009 47.6824 97.1078 47.722C95.1262 53.6667 95.1262 53.6667 90.9254 57.0155C84.0296 60.1661 78.8379 60.0671 71.3477 59.6113C71.3477 57.0155 71.3477 54.3998 71.3477 51.6851C77.9264 47.3257 79.9674 47.2861 87.5765 47.4842Z" fill="#D9C8A0"/>
<path d="M128.818 372.705C130.126 373.359 131.434 374.013 132.781 374.687C132.127 375.341 131.473 375.994 130.8 376.668C132.761 377.976 134.723 379.284 136.744 380.631C123.666 381.939 110.588 383.247 97.1133 384.594C97.7672 381.325 98.4211 378.055 99.0948 374.687C100.74 374.706 102.384 374.726 104.088 374.766C107.318 374.786 107.318 374.786 110.608 374.806C113.818 374.845 113.818 374.845 117.087 374.885C123.012 374.964 123.012 374.964 128.818 372.705Z" fill="#FAF7EA"/>
<path d="M406.235 142.845C413.17 146.59 418.203 149.741 422.087 156.716C422.464 162.165 422.464 162.165 422.087 166.624C415.39 166.128 413.547 164.028 408.593 159.193C404.253 152.753 404.253 152.753 404.63 147.046C405.165 145.659 405.68 144.272 406.235 142.845Z" fill="#DCC897"/>
<path d="M13.8878 113.122C18.4652 117.699 18.8417 120.017 20.0703 126.239C20.4071 127.864 20.744 129.489 21.0809 131.154C21.4375 133.016 21.4375 133.016 21.814 134.919C19.8523 133.611 17.8906 132.303 15.8694 130.956C13.1943 136.306 13.2141 141.101 12.7782 147.046C12.5998 149.225 12.4413 151.405 12.263 153.644C12.1441 155.309 12.0252 156.973 11.9063 158.697C10.5985 158.043 9.29064 157.389 7.94319 156.716C7.21001 141.002 8.39894 127.924 13.8878 113.122Z" fill="#DCCDA7"/>
<path d="M402.272 43.7686C410.198 51.6948 414.161 55.6777 418.124 65.5656C417.47 66.8734 416.817 68.1812 416.143 69.5287C413.527 66.913 410.912 64.2974 408.217 61.6025C406.909 67.4877 405.601 73.3729 404.254 79.4364C403.6 79.4364 402.946 79.4364 402.272 79.4364C402.272 67.666 402.272 55.8956 402.272 43.7686Z" fill="#DCCEA8"/>
<path d="M49.5566 148.79C48.5262 154.259 47.3571 159.352 45.5935 164.642C40.4415 167.912 37.9447 168.606 31.7227 168.606C34.6355 153.566 34.6355 153.566 39.53 149.781C43.612 148.79 43.612 148.79 49.5566 148.79Z" fill="#DFC98F"/>
<path d="M259.601 346.946C260.908 347.6 262.216 348.254 263.564 348.927C262.91 350.889 262.256 352.851 261.582 354.872C261.146 358.954 260.77 363.036 260.473 367.138C260.294 369.278 260.136 371.438 259.957 373.657C259.838 375.302 259.72 376.946 259.601 378.651C262.414 377.184 262.414 377.184 265.307 375.678C271.49 372.706 271.49 372.706 275.453 372.706C275.453 374.014 275.453 375.322 275.453 376.669C276.761 377.323 278.069 377.977 279.416 378.651C273.531 381.266 267.646 383.882 261.582 386.577C261.582 384.615 261.582 382.653 261.582 380.632C259.62 379.978 257.659 379.324 255.638 378.651C255.538 374.113 255.459 369.575 255.4 365.018C255.34 362.501 255.301 359.965 255.241 357.369C255.638 350.909 255.638 350.909 259.601 346.946Z" fill="#FBF7E5"/>
<path d="M168.45 434.133C157.313 440.078 157.313 440.078 150.616 440.078C149.308 447.925 148 455.772 146.653 463.857C147.96 464.51 149.268 465.164 150.616 465.838C149.308 467.8 148 469.762 146.653 471.783C145.602 468.374 144.572 464.927 143.561 461.499C142.987 459.596 142.412 457.694 141.818 455.712C140.609 449.49 140.292 445.983 142.69 440.078C147.505 437.304 147.505 437.304 153.469 435.362C155.431 434.708 157.373 434.034 159.394 433.341C164.487 432.152 164.487 432.152 168.45 434.133Z" fill="#DAD0AC"/>
<path d="M406.235 243.904C406.889 245.866 407.543 247.828 408.217 249.849C410.178 247.887 412.14 245.925 414.161 243.904C416.123 244.558 418.085 245.212 420.106 245.886C419.194 246.619 418.283 247.332 417.351 248.085C413.071 253.119 412.259 257.696 410.812 264.096C410.317 266.236 409.822 268.396 409.306 270.616C408.95 272.26 408.593 273.905 408.217 275.609C407.563 272.993 406.909 270.378 406.235 267.683C400.35 266.692 400.35 266.692 394.346 265.701C395 263.74 395.654 261.778 396.327 259.757C398.943 261.718 401.559 263.68 404.253 265.701C404.907 258.508 405.561 251.315 406.235 243.904Z" fill="#F7EFD9"/>
<path d="M364.622 14.0454C369.517 16.3242 372.647 18.1076 376.511 21.9716C377.819 20.6638 379.127 19.356 380.475 18.0085C383.11 25.8951 382.595 33.5637 382.456 41.7871C381.148 41.1332 379.84 40.4793 378.493 39.8055C374.53 39.7263 370.567 39.7263 366.604 39.8055C369.219 39.1516 371.835 38.4977 374.53 37.824C372.311 28.2135 370.309 22.4075 362.641 16.027C363.295 15.373 363.948 14.7191 364.622 14.0454Z" fill="#F8F4E1"/>
<path d="M89.187 339.019C98.1832 338.86 106.129 338.979 114.947 341C116.909 341 118.871 341 120.892 341C127.708 347.976 131.889 352.791 132.781 362.798C131.889 362.005 131.018 361.212 130.086 360.4C116.83 348.768 106.644 343.874 89.187 341C89.187 340.347 89.187 339.693 89.187 339.019Z" fill="#FBF3DF"/>
<path d="M294.648 376.173C296.788 376.193 296.788 376.193 298.948 376.193C308.935 376.352 317.535 377.481 326.967 380.632C326.967 381.286 326.967 381.94 326.967 382.613C309.034 382.911 291.359 381.999 273.465 380.632C280.738 375.797 286.246 376.074 294.648 376.173Z" fill="#DBCEA3"/>
<path d="M364.622 364.779C366.584 365.433 368.546 366.087 370.567 366.76C362.482 374.845 351.821 377.064 340.725 377.421C331.57 377.163 325.13 374.944 317.065 370.723C318.373 369.416 319.681 368.108 321.028 366.76C322.158 367.375 323.307 368.009 324.476 368.643C337.693 374.766 351.068 372.626 364.622 368.742C364.622 367.434 364.622 366.126 364.622 364.779Z" fill="#DCCDA8"/>
<path d="M430.014 134.919C430.668 136.881 431.321 138.843 431.995 140.864C430.033 143.817 430.033 143.817 428.032 146.809C427.16 150.534 426.427 154.299 425.813 158.084C425.298 161.036 425.298 161.036 424.802 164.048C424.564 165.554 424.307 167.06 424.069 168.606C421.453 167.952 418.838 167.298 416.143 166.624C418.105 166.624 420.066 166.624 422.087 166.624C419.947 158.084 418.045 151.485 412.18 144.827C414.795 145.481 417.411 146.135 420.106 146.809C423.375 142.885 426.645 138.962 430.014 134.919Z" fill="#F8F5E1"/>
<path d="M424.069 204.274C425.377 204.274 426.684 204.274 428.032 204.274C428.032 208.198 428.032 212.121 428.032 216.164C432.609 216.164 437.187 216.164 441.903 216.164C435.681 223.297 434.016 224.09 424.069 226.071C424.069 218.878 424.069 211.685 424.069 204.274Z" fill="#DCD1AB"/>
<path d="M319.047 307.314C320.355 307.968 321.663 308.622 323.01 309.296C322.356 310.525 321.702 311.753 321.029 313.021C317.105 325.247 318.413 338.464 321.029 350.909C317.065 348.927 317.065 348.927 314.866 344.528C311.299 333.431 311.101 321.483 316.075 310.901C317.065 309.712 318.036 308.543 319.047 307.314Z" fill="#FCF7E4"/>
<path d="M65.4085 208.237C71.2144 214.043 70.2831 220.483 70.6002 228.29C70.6794 229.796 70.7587 231.282 70.8379 232.828C71.0361 236.514 71.1946 240.219 71.3531 243.905C70.0453 244.559 68.7375 245.213 67.39 245.886C67.291 244.697 67.1919 243.489 67.0928 242.26C66.9541 240.675 66.7956 239.09 66.6371 237.465C66.5182 235.899 66.3795 234.334 66.2209 232.729C65.6463 227.993 65.6463 227.993 63.2486 223.911C61.4454 220.126 61.4454 220.126 63.1892 213.686C63.9223 211.883 64.6555 210.099 65.4085 208.237Z" fill="#DDCEAD"/>
<path d="M277.434 434.133C285.559 434.886 290.394 435.501 297.25 440.078C296.596 442.694 295.942 445.309 295.268 448.004C292.652 447.35 290.037 446.696 287.342 446.023C287.342 444.715 287.342 443.407 287.342 442.059C286.113 441.822 284.885 441.564 283.617 441.307C279.416 440.078 279.416 440.078 275.453 436.115C276.107 435.461 276.76 434.807 277.434 434.133Z" fill="#E1C78E"/>
<path d="M380.475 281.555C381.129 281.555 381.782 281.555 382.456 281.555C382.456 286.786 382.456 292.017 382.456 297.407C385.072 298.061 387.687 298.715 390.382 299.389C385.805 304.62 381.228 309.851 376.512 315.241C374.55 314.587 372.588 313.933 370.567 313.259C371.459 312.071 372.37 310.882 373.301 309.673C377.879 300.696 379.008 291.462 380.475 281.555Z" fill="#FBF2DE"/>
<path d="M19.8337 85.3809C21.7954 86.0348 23.7571 86.6887 25.7783 87.3624C25.1244 89.2845 24.4705 91.2066 23.7968 93.1882C20.3687 105.276 19.9129 117.601 25.7783 128.975C23.8166 129.629 21.8549 130.283 19.8337 130.956C17.5945 126.478 17.5945 123.981 17.5945 119.008C17.5945 117.442 17.5747 115.877 17.5747 114.252C17.5945 112.607 17.5945 110.982 17.6143 109.278C17.5945 107.653 17.5945 106.009 17.5747 104.324C17.5747 102.759 17.5945 101.194 17.5945 99.5688C17.5945 98.1222 17.5945 96.6955 17.5945 95.2093C17.8521 91.3255 17.8521 91.3255 19.8337 85.3809Z" fill="#F9F6E2"/>
<path d="M136.744 380.632C129.551 385.249 123.329 384.912 114.947 384.595C114.947 387.864 114.947 391.134 114.947 394.503C108.091 390.579 108.091 390.579 101.076 386.576C101.076 385.269 101.076 383.961 101.076 382.613C113.045 381.246 124.696 380.414 136.744 380.632Z" fill="#DBCDA8"/>
<path d="M342.826 283.536C345.322 292.215 344.787 300.101 344.312 309.058C344.252 310.623 344.213 312.189 344.153 313.794C343.638 323.563 342.013 330.439 336.881 339.019C335.652 335.551 335.652 335.551 334.899 331.093C335.514 330.023 336.128 328.973 336.762 327.883C339.814 321.066 339.794 314.17 340.091 306.819C340.17 305.333 340.25 303.866 340.329 302.341C340.527 298.714 340.686 295.088 340.844 291.462C339.536 290.808 338.228 290.154 336.881 289.48C338.843 287.519 340.804 285.557 342.826 283.536Z" fill="#D8CAA4"/>
<path d="M400.29 65.5659C400.944 65.5659 401.598 65.5659 402.272 65.5659C402.509 67.6465 402.767 69.7272 403.025 71.8871C404.075 78.3667 405.521 83.4197 408.216 89.3445C410.832 89.3445 413.448 89.3445 416.142 89.3445C416.142 90.6523 416.142 91.9602 416.142 93.3076C408.949 92.6537 401.756 91.9998 394.345 91.3261C394.345 90.6721 394.345 90.0182 394.345 89.3445C397.615 89.3445 400.885 89.3445 404.253 89.3445C400.528 82.2704 397.972 78.3469 390.382 75.4737C391.69 74.8198 392.998 74.1658 394.345 73.4921C396.307 74.146 398.269 74.7999 400.29 75.4737C400.29 72.2041 400.29 68.9346 400.29 65.5659Z" fill="#F8F0D7"/>
<path d="M126.836 2.15599C122.259 7.38728 117.681 12.6186 112.965 18.0084C112.311 16.0467 111.657 14.0849 110.984 12.0637C107.06 12.7177 103.137 13.3716 99.0942 14.0453C105.118 6.773 117.206 -2.65917 126.836 2.15599Z" fill="#D2D0A6"/>
<path d="M49.5566 331.093C61.327 334.046 61.327 334.046 73.3352 337.038C73.3352 337.692 73.3352 338.346 73.3352 339.019C70.0657 339.673 66.7961 340.327 63.4275 341.001C64.7353 343.617 66.0431 346.232 67.3906 348.927C61.4459 348.927 61.4459 348.927 58.2556 346.034C56.71 344.152 56.71 344.152 55.1248 342.23C54.0746 341.001 53.0244 339.753 51.9543 338.484C49.5566 335.056 49.5566 335.056 49.5566 331.093Z" fill="#D9D0A8"/>
<path d="M190.246 346.946C196.191 352.89 196.191 352.89 196.765 359.113C196.706 361.431 196.627 363.749 196.567 366.147C196.488 369.654 196.488 369.654 196.409 373.221C196.329 375.024 196.27 376.808 196.191 378.651C190.305 377.66 190.305 377.66 184.301 376.669C186.917 376.015 189.533 375.361 192.227 374.687C191.574 365.533 190.92 356.378 190.246 346.946Z" fill="#E0CEAC"/>
<path d="M426.051 146.809C426.705 146.809 427.358 146.809 428.032 146.809C429.34 153.348 430.648 159.887 431.995 166.625C435.919 165.971 439.842 165.317 443.885 164.643C436.711 174.313 436.711 174.313 430.014 176.532C425.991 169.894 425.615 164.901 425.813 157.212C425.853 154.28 425.853 154.28 425.912 151.307C425.952 149.821 426.011 148.335 426.051 146.809Z" fill="#DBCEA6"/>
<path d="M404.254 327.129C403.6 327.783 402.946 328.437 402.272 329.111C403.58 329.765 404.888 330.419 406.235 331.092C404.254 335.056 404.254 335.056 400.568 336.304C391.75 338.167 383.626 339.494 374.53 339.019C374.53 338.365 374.53 337.711 374.53 337.037C381.386 336.046 381.386 336.046 388.401 335.056C389.055 333.094 389.709 331.132 390.383 329.111C399.181 324.593 399.181 324.593 404.254 327.129Z" fill="#F7EFDB"/>
<path d="M60.9504 327.874C62.5356 328.468 64.1208 329.043 65.7457 329.657C66.9545 330.133 68.1434 330.608 69.372 331.084C68.718 332.411 68.0641 333.699 67.3904 335.047C63.4471 334.472 59.5237 333.898 55.5804 333.323C51.1417 332.808 51.1417 332.808 45.5934 335.047C44.9395 333.085 44.2855 331.123 43.6118 329.102C50.3689 324.802 53.5592 325.04 60.9504 327.874Z" fill="#FDFAEB"/>
<path d="M17.8511 273.628C25.0441 277.551 32.2371 281.475 39.6481 285.517C38.9942 286.825 38.3403 288.133 37.6666 289.48C35.3283 289.421 35.3283 289.421 32.9505 289.361C27.7985 289.104 27.7985 289.104 23.7957 291.462C21.834 285.577 19.8723 279.691 17.8511 273.628Z" fill="#DFCDAA"/>
<path d="M93.1498 269.665C98.5 277.69 98.183 284.011 97.1129 293.444C95.5475 298.437 93.566 302.638 91.1683 307.314C89.2065 307.314 87.2448 307.314 85.2236 307.314C86.1748 306.324 87.1259 305.333 88.1167 304.303C92.1987 297.724 92.2779 291.561 92.5355 284.031C92.6346 281.951 92.6346 281.951 92.7337 279.85C92.8922 276.462 93.0309 273.053 93.1498 269.665Z" fill="#DCCCA9"/>
<path d="M83.2426 249.85C86.2149 252.584 86.2149 252.584 89.1873 255.794C89.1873 257.102 89.1873 258.41 89.1873 259.757C87.8794 259.757 86.5716 259.757 85.2242 259.757C84.9864 261.481 84.7288 263.185 84.4712 264.949C83.2822 271.448 81.4988 277.334 79.2795 283.536C77.9717 283.536 76.6639 283.536 75.3164 283.536C76.8818 272.023 80.0919 261.006 83.2426 249.85Z" fill="#DCCDAB"/>
<path d="M416.143 63.584C417.451 63.584 418.759 63.584 420.106 63.584C420.76 67.5075 421.414 71.4309 422.088 75.4733C424.703 76.1272 427.319 76.7811 430.014 77.4548C429.36 79.4166 428.706 81.3783 428.032 83.3995C427.378 82.0917 426.725 80.7838 426.051 79.4364C424.743 84.0138 423.435 88.5911 422.088 93.3072C421.434 91.9994 420.78 90.6916 420.106 89.3441C418.798 89.3441 417.491 89.3441 416.143 89.3441C416.143 80.8433 416.143 72.3424 416.143 63.584Z" fill="#F5EFDD"/>
<path d="M118.91 8.1001C119.564 10.0618 120.218 12.0236 120.892 14.0447C119.584 15.3526 118.276 16.6604 116.929 18.0078C116.394 19.5535 115.859 21.1189 115.324 22.7239C112.371 29.2234 109.062 32.0372 103.058 35.8418C101.096 35.1879 99.1345 34.534 97.1133 33.8602C98.5004 32.5524 99.8874 31.2446 101.314 29.8971C107.992 23.2589 113.402 15.7092 118.91 8.1001Z" fill="#FAF6E2"/>
<path d="M184.301 440.078C182.835 440.989 181.389 441.901 179.883 442.832C177.941 444.041 176.019 445.27 174.017 446.518C172.115 447.707 170.213 448.916 168.231 450.144C162.762 453.79 157.669 457.674 152.597 461.875C152.597 459.259 152.597 456.644 152.597 453.949C156.758 450.64 160.563 448.044 165.1 445.408C166.289 444.675 167.458 443.922 168.687 443.169C177.564 437.839 177.564 437.839 184.301 440.078Z" fill="#DBC8A3"/>
<path d="M31.7225 198.329C33.0303 198.329 34.3381 198.329 35.6856 198.329C36.0423 208.672 35.6261 216.301 31.7225 226.07C29.7607 225.416 27.799 224.762 25.7778 224.089C27.0857 224.089 28.3935 224.089 29.7409 224.089C29.7211 222.404 29.7013 220.7 29.6617 218.957C29.6617 216.777 29.6419 214.577 29.622 212.318C29.6022 210.139 29.5626 207.959 29.5428 205.7C29.7409 200.31 29.7409 200.31 31.7225 198.329Z" fill="#F2ECD1"/>
<path d="M435.958 101.233C436.612 101.233 437.266 101.233 437.939 101.233C440.139 114.47 440.456 123.01 433.976 134.919C432.015 133.611 430.053 132.304 428.032 130.956C428.646 129.886 429.24 128.816 429.875 127.706C432.312 122.356 433.263 117.442 434.214 111.636C434.551 109.694 434.888 107.732 435.225 105.731C435.463 104.245 435.72 102.759 435.958 101.233Z" fill="#FAF1E1"/>
<path d="M150.616 313.259C157.472 315.736 162.802 318.569 168.45 323.167C165.834 323.167 163.218 323.167 160.523 323.167C160.523 328.398 160.523 333.629 160.523 339.019C157.531 333.372 155.312 327.764 153.35 321.68C152.558 319.303 152.558 319.303 151.785 316.885C151.389 315.676 151.012 314.487 150.616 313.259Z" fill="#DAD1AD"/>
<path d="M11.9067 253.812C19.8329 263.224 19.8329 263.224 19.8329 267.683C21.7947 268.337 23.7564 268.991 25.7776 269.664C25.7776 270.972 25.7776 272.28 25.7776 273.628C28.3932 274.935 31.0089 276.243 33.7038 277.591C33.0499 279.552 32.396 281.514 31.7222 283.535C26.7684 280.939 26.7684 280.939 21.8145 277.591C21.8145 275.629 21.8145 273.667 21.8145 271.646C19.0998 268.594 19.0998 268.594 15.8698 265.701C11.9067 259.757 11.9067 259.757 11.9067 253.812Z" fill="#F9F2DB"/>
<path d="M3.98097 160.679C7.96389 165.752 11.174 170.686 13.8887 176.532C11.2731 176.532 8.65743 176.532 5.96252 176.532C5.30861 181.109 4.6547 185.686 3.98097 190.402C3.32706 190.402 2.67315 190.402 1.99942 190.402C1.93998 185.825 1.90035 181.248 1.88053 176.65C1.86072 174.094 1.82109 171.558 1.80127 168.922C1.99942 162.661 1.99942 162.661 3.98097 160.679Z" fill="#E0D3B5"/>
<path d="M311.12 434.133C313.736 435.441 316.352 436.749 319.046 438.096C319.621 450.085 319.621 450.085 319.046 453.949C317.085 455.257 315.123 456.564 313.102 457.912C313.756 452.681 314.41 447.449 315.083 442.059C309.852 440.752 304.621 439.444 299.231 438.096C307.157 436.115 307.157 436.115 311.12 438.096C311.12 436.789 311.12 435.481 311.12 434.133Z" fill="#FAF4E0"/>
<path d="M396.327 342.981C396.981 344.943 397.635 346.905 398.309 348.926C392.166 357.863 386.816 362.737 376.512 366.76C374.55 366.76 372.588 366.76 370.567 366.76C371.815 365.829 373.044 364.897 374.332 363.926C375.957 362.698 377.562 361.469 379.246 360.201C380.851 358.973 382.456 357.764 384.121 356.496C388.797 352.909 388.797 352.909 392.364 346.945C393.672 346.945 394.98 346.945 396.327 346.945C396.327 345.637 396.327 344.329 396.327 342.981Z" fill="#F9F5E0"/>
<path d="M321.028 372.705C324.298 373.359 327.568 374.013 330.936 374.687C330.936 376.648 330.936 378.61 330.936 380.631C337.475 380.631 344.014 380.631 350.752 380.631C350.752 381.285 350.752 381.939 350.752 382.613C346.947 382.712 343.162 382.791 339.358 382.851C336.187 382.93 336.187 382.93 332.957 383.009C327.132 382.613 323.961 381.681 319.047 378.65C319.701 376.688 320.355 374.726 321.028 372.705Z" fill="#F9EEDD"/>
<path d="M259.6 354.871C260.254 354.871 260.908 354.871 261.582 354.871C262.236 360.756 262.889 366.641 263.563 372.705C265.525 371.397 267.487 370.089 269.508 368.742C273.847 369.495 273.847 369.495 277.434 370.723C266.298 378.65 266.298 378.65 259.6 378.65C259.6 370.803 259.6 362.956 259.6 354.871Z" fill="#DECCA5"/>
<path d="M47.5754 243.904C48.2293 243.904 48.8832 243.904 49.5569 243.904C50.8648 250.443 52.1726 256.983 53.52 263.72C55.4818 263.066 57.4435 262.412 59.4647 261.738C59.4647 263.046 59.4647 264.354 59.4647 265.701C58.2361 266.236 57.0076 266.771 55.7394 267.306C50.944 269.585 50.944 269.585 47.5754 275.609C45.8713 264.275 45.574 255.179 47.5754 243.904Z" fill="#F8F0D7"/>
<path d="M51.5373 43.7686C52.1912 43.7686 52.8451 43.7686 53.5189 43.7686C53.6774 49.1386 53.7963 54.5086 53.8954 59.8587C53.9746 62.1375 53.9746 62.1375 54.0341 64.4361C54.1728 74.2844 52.8451 80.7046 47.5742 89.3442C46.9203 89.3442 46.2664 89.3442 45.5927 89.3442C45.0973 80.3281 45.0973 80.3281 47.5148 76.0282C50.3484 69.7467 50.4078 64.0002 50.7843 57.144C50.9429 54.6473 51.0816 52.1307 51.2401 49.5547C51.3392 47.6524 51.4382 45.7303 51.5373 43.7686Z" fill="#E2D2AF"/>
<path d="M83.2424 325.148C83.8963 327.11 84.5502 329.072 85.2239 331.093C81.9543 331.093 78.6848 331.093 75.3162 331.093C75.3162 333.055 75.3162 335.017 75.3162 337.038C77.2779 337.692 79.2396 338.346 81.2608 339.019C76.0295 338.365 70.7982 337.711 65.4084 337.038C66.0623 335.73 66.7162 334.422 67.39 333.075C65.4282 331.767 63.4665 330.459 61.4453 329.112C68.6383 329.112 75.8314 329.112 83.2424 329.112C83.2424 327.804 83.2424 326.496 83.2424 325.148Z" fill="#F2EBD3"/>
<path d="M386.419 75.4736C391.988 75.8501 391.988 75.8501 398.309 77.4552C402.034 82.5279 402.034 82.5279 404.253 87.3629C395.416 85.4012 395.416 85.4012 386.419 83.3998C386.419 80.7842 386.419 78.1685 386.419 75.4736Z" fill="#DFC996"/>
<path d="M356.696 19.9893C358.004 20.6432 359.312 21.2971 360.659 21.9708C362.007 22.5058 363.354 23.0408 364.741 23.5759C368.586 25.9339 368.586 25.9339 370.567 33.8601C365.336 32.5523 360.105 31.2445 354.715 29.897C355.369 26.6274 356.023 23.3579 356.696 19.9893Z" fill="#E0C78C"/>
<path d="M328.954 0.173828C333.531 1.48165 338.109 2.78947 342.825 4.13693C342.171 6.75257 341.517 9.36822 340.843 12.0631C342.151 12.0631 343.459 12.0631 344.806 12.0631C348.155 16.7792 348.155 16.7792 350.751 21.9709C350.097 23.2787 349.443 24.5865 348.77 25.934C345.46 22.0105 342.151 18.087 338.862 14.1636C337.911 13.0539 336.979 11.9244 335.989 10.7751C328.954 2.37335 328.954 2.37335 328.954 0.173828Z" fill="#D8CFAB"/>
<path d="M259.6 386.577C260.254 388.538 260.908 390.5 261.582 392.521C260.928 393.829 260.274 395.137 259.6 396.484C260.908 396.484 262.216 396.484 263.563 396.484C262.909 398.446 262.255 400.408 261.582 402.429C257.619 400.448 253.655 398.466 249.692 396.484C249.692 395.177 249.692 393.869 249.692 392.521C254.646 389.311 254.646 389.311 259.6 386.577Z" fill="#DFCCAC"/>
<path d="M49.5559 172.569C51.5176 173.877 53.4794 175.184 55.5006 176.532C54.5692 177.305 53.6379 178.058 52.6669 178.85C46.2269 184.26 40.3417 189.234 35.6851 196.347C36.6758 187.668 39.6085 182.873 45.5928 176.532C46.9006 176.532 48.2085 176.532 49.5559 176.532C49.5559 175.224 49.5559 173.916 49.5559 172.569Z" fill="#FAFAE6"/>
<path d="M449.829 160.679C450.483 160.679 451.137 160.679 451.81 160.679C454.208 169.933 453.97 178.929 453.792 188.421C453.138 188.421 452.484 188.421 451.81 188.421C451.156 183.844 450.502 179.266 449.829 174.55C448.521 174.55 447.213 174.55 445.866 174.55C445.212 176.512 444.558 178.474 443.884 180.495C441.903 174.55 441.903 174.55 443.448 170.944C445.568 167.516 447.708 164.107 449.829 160.679Z" fill="#E1CEB0"/>
<path d="M394.346 109.16C399.062 108.922 399.062 108.922 404.253 109.16C408.217 113.123 408.217 113.123 408.217 121.049C405.601 121.049 402.985 121.049 400.29 121.049C398.329 117.126 396.367 113.202 394.346 109.16Z" fill="#DFC692"/>
<path d="M73.3349 18.0083C75.3759 24.488 75.2372 29.6202 74.4446 36.3376C74.2464 38.1012 74.0482 39.8648 73.8303 41.6878C73.6718 43.0353 73.5132 44.3629 73.3349 45.75C72.681 45.75 72.0271 45.75 71.3533 45.75C70.7391 43.5901 70.1248 41.4104 69.4907 39.1911C68.2225 34.7524 66.875 30.3137 65.4087 25.9345C68.0243 23.3189 70.64 20.7032 73.3349 18.0083Z" fill="#D9CFAF"/>
<path d="M334.899 382.613C341.439 382.613 347.978 382.613 354.715 382.613C352.753 385.565 352.753 385.565 350.752 388.557C349.444 388.557 348.136 388.557 346.789 388.557C346.789 389.865 346.789 391.173 346.789 392.521C344.173 393.174 341.557 393.828 338.863 394.502C338.863 393.194 338.863 391.886 338.863 390.539C340.17 390.539 341.478 390.539 342.826 390.539C340.923 385.922 340.923 385.922 334.899 382.613Z" fill="#DCCEAB"/>
<path d="M346.788 279.572C344.331 286.963 341.022 288.786 334.899 293.443C332.878 295.385 330.876 297.347 328.954 299.388C329.905 290.827 332.323 287.102 338.862 281.554C342.825 279.572 342.825 279.572 346.788 279.572Z" fill="#FAFBEB"/>
<path d="M112.966 277.591C114.155 279.097 115.344 280.623 116.552 282.168C119.842 286.211 123.072 289.876 126.837 293.443C126.183 295.405 125.529 297.367 124.855 299.388C120.932 294.81 117.008 290.233 112.966 285.517C111.004 286.171 109.042 286.825 107.021 287.499C106.367 285.537 105.713 283.575 105.04 281.554C107.655 280.246 110.271 278.938 112.966 277.591Z" fill="#FAFAEB"/>
<path d="M428.032 271.646C429.994 273.608 431.956 275.569 433.977 277.591C420.602 285.517 420.602 285.517 416.143 285.517C416.52 281.93 416.52 281.93 418.125 277.591C423.197 274.123 423.197 274.123 428.032 271.646Z" fill="#FBF7E6"/>
<path d="M13.8889 113.122C18.4663 117.699 18.8428 120.017 20.0713 126.239C20.4082 127.864 20.745 129.489 21.0819 131.154C21.4386 133.016 21.4386 133.016 21.8151 134.919C19.1994 132.957 16.5838 130.995 13.8889 128.974C12.5811 130.282 11.2732 131.59 9.92578 132.937C11.6695 117.58 11.6695 117.58 13.8889 113.122Z" fill="#DBD3B2"/>
<path d="M81.2611 16.0264C81.915 17.3342 82.5689 18.642 83.2426 19.9895C84.5504 20.6434 85.8582 21.2973 87.2057 21.971C84.4712 25.9341 84.4712 25.9341 81.2611 29.8972C79.9532 29.8972 78.6454 29.8972 77.298 29.8972C77.298 33.1668 77.298 36.4363 77.298 39.805C76.644 39.805 75.9901 39.805 75.3164 39.805C75.3164 32.6119 75.3164 25.4189 75.3164 18.0079C77.2781 18.9987 77.2781 18.9987 79.2795 19.9895C79.9334 18.6816 80.5873 17.3738 81.2611 16.0264Z" fill="#FDFAEF"/>
<path d="M29.7407 299.388C31.7025 299.388 33.6642 299.388 35.6854 299.388C35.6854 301.35 35.6854 303.312 35.6854 305.333C36.9139 305.452 38.1425 305.571 39.4107 305.709C43.6116 307.314 43.6116 307.314 46.0885 312.387C46.5839 313.992 47.0793 315.577 47.5747 317.222C45.6129 317.222 43.6512 317.222 41.63 317.222C38.4397 313.834 38.4397 313.834 35.3089 309.415C34.2587 307.968 33.2084 306.522 32.1384 305.036C29.7407 301.37 29.7407 301.37 29.7407 299.388Z" fill="#D9CFA3"/>
<path d="M449.829 218.145C450.483 218.145 451.137 218.145 451.81 218.145C451.156 224.03 450.503 229.915 449.829 235.979C449.175 234.017 448.521 232.055 447.847 230.034C443.924 230.688 440 231.342 435.958 232.016C440.575 227.399 445.212 222.762 449.829 218.145Z" fill="#DFCDAC"/>
<path d="M394.346 166.624C402.034 176.036 402.034 176.036 404.253 180.495C402.292 180.495 400.33 180.495 398.309 180.495C398.309 183.764 398.309 187.034 398.309 190.403C397.001 189.749 395.693 189.095 394.346 188.421C394.346 181.228 394.346 174.035 394.346 166.624Z" fill="#D9CFB3"/>
<path d="M51.5382 158.698C52.1921 161.314 52.846 163.93 53.5197 166.624C43.0373 172.728 43.0373 172.728 35.9235 171.955C34.5365 171.499 33.1494 171.043 31.7227 170.588C37.489 166.743 43.3544 163.771 49.5566 160.68C50.2105 160.026 50.8644 159.372 51.5382 158.698Z" fill="#FCF5E8"/>
<path d="M87.2059 47.731C90.4755 47.731 93.745 47.731 97.1137 47.731C95.1321 53.6756 95.1321 53.6756 90.9312 57.0244C84.0354 60.1553 78.8438 60.0562 71.3535 59.6203C71.3535 58.9663 71.3535 58.3124 71.3535 57.6387C76.5848 56.9848 81.8161 56.3309 87.2059 55.6572C87.2059 53.0415 87.2059 50.4259 87.2059 47.731Z" fill="#D5CDAE"/>
<path d="M416.143 192.384C417.451 193.038 418.758 193.692 420.106 194.365C420.106 200.904 420.106 207.444 420.106 214.181C417.49 212.873 414.875 211.565 412.18 210.218C413.488 210.218 414.795 210.218 416.143 210.218C415.766 207.642 415.41 205.066 415.033 202.41C414.399 198.031 414.399 198.031 414.161 194.365C414.815 193.711 415.469 193.058 416.143 192.384Z" fill="#DCCFA8"/>
<path d="M51.5382 77.4546C52.846 79.4163 54.1539 81.3781 55.5013 83.3992C53.5396 86.3517 53.5396 86.3517 51.5382 89.3439C56.1156 89.3439 60.693 89.3439 65.4091 89.3439C65.4091 89.9978 65.4091 90.6517 65.4091 91.3254C52.6479 92.3162 52.6479 92.3162 39.6489 93.307C40.3028 91.9992 40.9567 90.6913 41.6305 89.3439C42.9383 89.3439 44.2461 89.3439 45.5936 89.3439C47.5553 85.4204 49.517 81.497 51.5382 77.4546Z" fill="#F8F0D8"/>
<path d="M404.253 333.074C403.639 336.918 403.639 336.918 402.272 341C400.31 341.654 398.348 342.308 396.327 342.982C395.673 344.29 395.019 345.598 394.345 346.945C393.038 343.022 391.73 339.098 390.382 335.056C395.316 333.688 399.062 333.074 404.253 333.074Z" fill="#E2D2AE"/>
<path d="M47.5751 212.2C43.6516 214.162 43.6516 214.162 39.6489 216.163C40.3028 218.125 40.9567 220.087 41.6304 222.108C38.3608 223.416 35.0913 224.723 31.7227 226.071C32.0992 220.364 32.0992 220.364 33.7042 214.182C41.888 209.347 41.888 209.347 47.5751 212.2Z" fill="#FBFAEF"/>
<path d="M291.305 350.908C291.959 350.908 292.613 350.908 293.287 350.908C294.158 355.109 294.158 355.109 293.287 360.816C289.066 365.334 284.37 369.039 279.416 372.705C278.108 372.051 276.8 371.397 275.453 370.724C278.187 367.751 278.187 367.751 281.397 364.779C282.705 364.779 284.013 364.779 285.36 364.779C285.975 363.233 286.589 361.668 287.223 360.063C289.323 354.871 289.323 354.871 291.305 350.908Z" fill="#F9F1DC"/>
<path d="M332.918 342.981C334.88 344.943 336.842 346.905 338.863 348.926C332.978 353.84 332.978 353.84 326.973 358.834C326.32 357.526 325.666 356.218 324.992 354.871C323.684 354.871 322.376 354.871 321.029 354.871C323.526 349.857 326.042 349.402 330.937 346.945C331.59 345.637 332.244 344.329 332.918 342.981Z" fill="#FAF1E0"/>
<path d="M89.1874 307.314C92.2192 313.398 90.2773 318.609 89.1874 325.148C86.5718 324.494 83.9561 323.841 81.2612 323.167C81.2612 320.551 81.2612 317.936 81.2612 315.241C82.5691 315.241 83.8769 315.241 85.2243 315.241C86.5322 312.625 87.84 310.009 89.1874 307.314Z" fill="#FAF8E9"/>
<path d="M110.985 283.536C113.601 286.151 116.216 288.767 118.911 291.462C117.603 291.462 116.295 291.462 114.948 291.462C114.948 299.963 114.948 308.464 114.948 317.222C114.294 317.222 113.64 317.222 112.966 317.222C112.313 306.105 111.659 294.989 110.985 283.536Z" fill="#DDD6BA"/>
<path d="M301.213 313.259C302.52 313.913 303.828 314.567 305.176 315.24C303.214 319.164 301.252 323.087 299.231 327.13C298.577 325.822 297.923 324.514 297.249 323.167C293.247 321.879 293.247 321.879 289.323 321.185C293.247 318.569 297.17 315.954 301.213 313.259Z" fill="#D8CBA4"/>
<path d="M334.9 291.462C335.554 292.77 336.207 294.078 336.881 295.425C336.227 297.387 335.573 299.348 334.9 301.37C333.592 301.37 332.284 301.37 330.937 301.37C330.778 302.598 330.6 303.827 330.441 305.095C328.955 309.296 328.955 309.296 324.873 311.773C323.605 312.268 322.337 312.764 321.029 313.259C323.981 304.164 328.658 298.516 334.9 291.462Z" fill="#DDCFA8"/>
<path d="M59.4644 222.107C61.4459 228.052 61.4459 228.052 60.039 231.599C59.3257 232.788 58.5925 233.997 57.8593 235.225C57.146 236.454 56.4326 237.663 55.7193 238.911C53.5197 241.923 53.5197 241.923 49.5566 243.904C51.6967 235.364 53.599 228.765 59.4644 222.107Z" fill="#DBCCAB"/>
<path d="M59.4648 166.624C60.1187 166.624 60.7726 166.624 61.4463 166.624C61.6048 174.867 61.4067 182.377 59.4648 190.403C58.8108 190.403 58.1569 190.403 57.4832 190.403C52.8662 177.998 52.8662 177.998 56.1159 170.706C57.2256 169.359 58.3353 168.011 59.4648 166.624Z" fill="#D8D0B1"/>
<path d="M386.419 101.233C388.381 101.887 390.343 102.541 392.364 103.214C392.364 104.522 392.364 105.83 392.364 107.178C393.672 107.831 394.98 108.485 396.327 109.159C397.754 112.409 399.082 115.718 400.29 119.067C392.701 116.194 390.006 112.369 386.419 105.196C386.419 103.888 386.419 102.58 386.419 101.233Z" fill="#D5CDA4"/>
<path d="M366.604 49.7129C372.49 50.7037 372.49 50.7037 378.494 51.6944C379.148 53.6562 379.802 55.6179 380.475 57.6391C376.552 57.6391 372.628 57.6391 368.586 57.6391C367.932 55.0234 367.278 52.4078 366.604 49.7129Z" fill="#DBC794"/>
<path d="M402.272 41.7871C406.195 43.0949 410.119 44.4028 414.161 45.7502C414.815 50.3276 415.469 54.905 416.143 59.6211C411.407 53.7557 406.75 47.8506 402.272 41.7871Z" fill="#FCF9E9"/>
<path d="M265.545 422.244C267.507 423.551 269.468 424.859 271.489 426.207C270.182 429.476 268.874 432.746 267.526 436.114C262.612 434.153 262.612 434.153 257.619 432.151C260.234 428.882 262.85 425.612 265.545 422.244Z" fill="#E1CDA2"/>
<path d="M202.136 410.355C206.713 410.355 211.291 410.355 216.007 410.355C211.35 415.012 208.16 415.765 201.898 417.529C199.183 418.321 199.183 418.321 196.429 419.094C195.042 419.49 193.655 419.867 192.228 420.263C192.228 418.955 192.228 417.648 192.228 416.3C194.844 416.3 197.459 416.3 200.154 416.3C200.808 414.338 201.462 412.377 202.136 410.355Z" fill="#FBF3E5"/>
<path d="M164.486 354.871C165.794 354.871 167.101 354.871 168.449 354.871C171.302 357.843 171.302 357.843 174.394 361.688C178.654 367.058 178.654 367.058 184.301 370.723C183.647 372.031 182.994 373.339 182.32 374.687C179.704 372.507 177.108 370.327 174.512 368.128C173.066 366.899 171.619 365.69 170.133 364.422C166.467 360.816 166.467 360.816 164.486 354.871Z" fill="#DDD1AD"/>
<path d="M437.939 180.495C438.593 183.111 439.247 185.726 439.921 188.421C436.651 191.037 433.382 193.653 430.013 196.348C429.359 195.04 428.705 193.732 428.032 192.384C431.301 188.461 434.571 184.537 437.939 180.495Z" fill="#DDCFAB"/>
<path d="M29.7403 150.771C31.7021 151.425 33.6638 152.079 35.685 152.753C32.2173 168.11 32.2173 168.11 27.7588 172.569C28.4127 165.376 29.0666 158.182 29.7403 150.771Z" fill="#FBF1DF"/>
<path d="M271.489 327.129C273.451 328.437 275.413 329.745 277.434 331.092C276.126 331.092 274.818 331.092 273.471 331.092C272.678 332.816 272.678 332.816 271.866 334.56C269.468 339.078 266.714 342.922 263.563 346.945C262.75 339.811 263.266 337.473 267.526 331.469C268.834 330.042 270.142 328.596 271.489 327.129Z" fill="#FBF4E5"/>
<path d="M424.069 301.37C425.377 301.37 426.685 301.37 428.032 301.37C425.436 309.177 422.246 313.715 416.143 319.204C414.835 318.55 413.527 317.896 412.18 317.222C414.062 314.567 415.964 311.931 417.887 309.296C418.937 307.829 419.987 306.343 421.077 304.837C422.068 303.688 423.058 302.559 424.069 301.37Z" fill="#FCF8EC"/>
<path d="M370.567 69.5283C380.376 71.4901 380.376 71.4901 390.382 73.4914C390.382 74.1453 390.382 74.7992 390.382 75.473C385.805 76.7808 381.228 78.0886 376.512 79.4361C374.55 76.1665 372.588 72.897 370.567 69.5283Z" fill="#DFD2BE"/>
<path d="M172.413 448.005C172.413 451.968 172.413 451.968 170.193 454.94C165.358 458.804 160.484 460.172 154.579 461.876C165.16 448.005 165.16 448.005 172.413 448.005Z" fill="#FDF6E6"/>
<path d="M231.859 414.317C237.744 417.587 243.629 420.856 249.693 424.225C249.693 424.879 249.693 425.533 249.693 426.207C245.234 426.702 245.234 426.702 239.785 426.207C235.208 422.481 235.208 422.481 231.859 418.28C231.859 416.973 231.859 415.665 231.859 414.317Z" fill="#FAF9E6"/>
<path d="M431.995 226.071C435.264 226.071 438.534 226.071 441.903 226.071C441.249 227.379 440.595 228.687 439.921 230.034C438.613 230.034 437.305 230.034 435.958 230.034C435.958 231.342 435.958 232.65 435.958 233.997C434.65 233.997 433.342 233.997 431.995 233.997C431.995 235.305 431.995 236.613 431.995 237.961C430.687 237.307 429.379 236.653 428.032 235.979C429.34 232.709 430.647 229.44 431.995 226.071Z" fill="#F9F4E2"/>
<path d="M63.4269 97.2695C66.6964 97.2695 69.966 97.2695 73.3346 97.2695C72.6807 101.193 72.0268 105.116 71.3531 109.159C70.0452 109.159 68.7374 109.159 67.39 109.159C68.0439 106.543 68.6978 103.928 69.3715 101.233C66.7559 101.887 64.1402 102.54 61.4453 103.214C62.0992 101.252 62.7531 99.2907 63.4269 97.2695Z" fill="#F8F5E6"/>
<path d="M112.965 6.11865C113.619 9.38821 114.273 12.6578 114.947 16.0264C112.985 17.0172 112.985 17.0172 110.984 18.0079C110.984 16.0462 110.984 14.0845 110.984 12.0633C107.06 12.7172 103.137 13.3711 99.0942 14.0448C106.267 6.11865 106.267 6.11865 112.965 6.11865Z" fill="#E0D5B2"/>
<path d="M71.3535 354.871C78.17 357.328 83.7382 359.944 89.1875 364.779C89.1875 366.087 89.1875 367.394 89.1875 368.742C81.6179 365.651 76.9217 360.736 71.3535 354.871Z" fill="#DACAA3"/>
<path d="M269.508 337.038C270.994 340.387 270.994 340.387 271.49 344.964C267.645 350.414 267.645 350.414 263.563 354.872C263.563 346.391 264.97 343.855 269.508 337.038Z" fill="#E1CAA5"/>
<path d="M285.36 323.167C286.668 323.82 287.976 324.474 289.324 325.148C288.67 327.11 288.016 329.072 287.342 331.093C280.288 333.451 280.288 333.451 273.471 335.056C273.471 333.748 273.471 332.44 273.471 331.093C277.355 328.338 281.318 325.683 285.36 323.167Z" fill="#DBCDA4"/>
<path d="M114.947 291.462C118.534 291.838 118.534 291.838 122.873 293.443C126.341 298.516 126.341 298.516 128.818 303.351C119.406 299.626 119.406 299.626 114.947 297.407C114.947 295.445 114.947 293.483 114.947 291.462Z" fill="#DBCCA5"/>
<path d="M342.826 283.536C345.857 291.62 344.074 298.972 342.826 307.314C342.172 307.314 341.518 307.314 340.844 307.314C340.844 302.083 340.844 296.852 340.844 291.462C339.536 290.808 338.228 290.154 336.881 289.48C338.843 287.519 340.804 285.557 342.826 283.536Z" fill="#DED9BC"/>
<path d="M435.958 273.628C436.612 274.936 437.266 276.244 437.939 277.591C435.978 280.544 435.978 280.544 433.976 283.536C426.803 284.903 426.803 284.903 420.105 285.517C425.297 281.316 430.41 277.333 435.958 273.628Z" fill="#D5D0AC"/>
<path d="M35.6858 152.753C36.3397 152.753 36.9936 152.753 37.6673 152.753C37.6673 156.676 37.6673 160.6 37.6673 164.642C38.9751 165.296 40.2829 165.95 41.6304 166.624C38.3608 167.278 35.0913 167.932 31.7227 168.605C33.0305 163.374 34.3383 158.143 35.6858 152.753Z" fill="#D8CDA7"/>
<path d="M71.3531 45.75C73.3148 47.0578 75.2765 48.3656 77.2977 49.7131C75.336 51.0209 73.3742 52.3287 71.3531 53.6762C71.3531 55.6379 71.3531 57.5997 71.3531 59.6208C68.0835 59.6208 64.8139 59.6208 61.4453 59.6208C64.7149 55.0435 67.9844 50.4661 71.3531 45.75Z" fill="#F6EED0"/>
<path d="M350.751 27.916C362.145 31.1261 362.145 31.1261 366.604 37.8238C360.184 37.1302 357.449 36.7141 353.11 31.7602C352.337 30.492 351.544 29.2238 350.751 27.916Z" fill="#DBD1B0"/>
<path d="M360.659 299.388C362.621 299.388 364.583 299.388 366.604 299.388C367.258 301.35 367.912 303.312 368.585 305.333C371.558 308.642 371.558 308.642 374.53 311.277C372.568 311.931 370.607 312.585 368.585 313.259C364.662 306.403 364.662 306.403 360.659 299.388Z" fill="#DCCDA8"/>
<path d="M435.958 277.591C436.612 277.591 437.266 277.591 437.94 277.591C437.94 281.514 437.94 285.438 437.94 289.48C436.632 289.48 435.324 289.48 433.977 289.48C433.323 291.442 432.669 293.404 431.995 295.425C431.341 294.117 430.687 292.809 430.014 291.462C431.876 286.785 433.838 282.148 435.958 277.591Z" fill="#F8F7E5"/>
</g>
</svg>
