<svg width="308" height="49" viewBox="0 0 308 49" fill="none" xmlns="http://www.w3.org/2000/svg">
<path d="M307.838 30.9519C308 29.9311 308 29.0705 308 28.1572C308 19.6115 301.333 12.8398 292.569 12.8398C284.665 12.8398 277.568 19.3965 277.568 28.8021C277.568 36.7562 284.343 44.1729 292.73 44.1729C299.128 44.1729 304.72 40.1958 307.032 34.069H301.44C299.72 37.2396 296.44 39.0675 292.945 39.0675C288.375 39.0675 284.45 35.8963 283.16 30.9519H307.838ZM283.16 26.6523C283.59 21.547 288.16 17.9458 292.73 17.9458C297.515 17.9458 301.978 21.6004 302.408 26.6523H283.16ZM271.869 43.4205V13.6463H266.278V17.8383H266.17C263.858 14.4521 260.202 12.8398 255.847 12.8398C247.083 12.8398 240.255 19.504 240.255 29.0171C240.255 37.6161 247.352 44.1729 256.062 44.1729C260.31 44.1729 264.073 42.3456 266.17 38.7985H266.278V43.4205H271.869ZM256.009 39.0675C250.417 39.0675 245.847 34.1765 245.847 28.5871C245.847 22.7294 250.417 17.9458 256.009 17.9458C262.191 17.9458 266.385 22.7828 266.385 28.5871C266.385 34.2299 261.815 39.0675 256.009 39.0675ZM233.159 43.4205V18.7516H238.051V13.6463H233.159V3.6499H227.567V13.6463H223.534V18.7516H227.567V43.4205H233.159ZM219.449 13.6463H213.858V43.4205H219.449V13.6463ZM219.449 3.6499H213.858V10.2067H219.449V3.6499ZM195.523 43.4205L211.491 3.6499H205.362L193.803 33.4775L182.243 3.6499H176.006L192.028 43.4205H195.523Z" fill="#E23428"/>
<path d="M171.811 43.4205V25.5775C171.811 17.355 166.542 12.8405 159.391 12.8405C155.95 12.8405 152.885 13.9688 150.681 16.8175H150.574V13.6463H145.358V43.4205H150.95V27.1364C150.95 21.547 153.907 17.9458 158.8 17.9458C163.746 17.9458 166.219 20.9021 166.219 27.1898V43.4205H171.811ZM139.659 30.9519C139.821 29.9311 139.821 29.0712 139.821 28.1572C139.821 19.6122 133.154 12.8405 124.389 12.8405C116.486 12.8405 109.389 19.3972 109.389 28.8021C109.389 36.7562 116.164 44.1729 124.551 44.1729C130.949 44.1729 136.541 40.1958 138.853 34.069H133.261C131.541 37.2402 128.261 39.0675 124.766 39.0675C120.196 39.0675 116.271 35.8963 114.981 30.9519H139.659ZM114.981 26.6523C115.411 21.547 119.981 17.9458 124.551 17.9458C129.336 17.9458 133.799 21.6004 134.229 26.6523H114.981ZM107.131 43.4205V38.3151H92.5067L106.002 19.0748V13.6463H86.9692V18.7523H99.873L85.5713 39.0675V43.4205H107.131ZM81.0016 13.6463H75.4099V43.4205H81.0016V13.6463ZM81.0016 3.6499H75.4099V10.2067H81.0016V3.6499ZM66.754 43.4205V18.7523H71.6463V13.6463H66.754V3.6499H61.1623V13.6463H57.1296V18.7523H61.1623V43.4205H66.754ZM53.0448 13.6463H47.4531V43.4205H53.0448V13.6463ZM53.0448 3.6499H47.4531V10.2067H53.0448V3.6499Z" fill="#012573"/>
<path d="M37.9928 9.95997L20.9348 0L0 12.1668V36.3524L21.1137 48.5493L39.5135 37.7538L34.5335 34.8313L20.9348 42.7639L4.9504 33.4896V15.0597L21.1137 5.78493L35.3384 14.0754L37.9928 9.95997Z" fill="#012573"/>
<path d="M7.93262 24.4534L15.6266 12.853L19.2348 15.2086L24.8413 29.4038L42.4361 2.95215L46.0743 5.36747L25.1395 36.9785L22.1277 35.0103L16.2827 19.9505L11.6606 26.8692L7.93262 24.4534Z" fill="#E23428"/>
</svg>
