<svg xmlns="http://www.w3.org/2000/svg" fill="none" viewBox="0 0 308 49"><path fill="#e23428" d="M307.8 31q.3-1.5.2-2.8c0-8.6-6.7-15.4-15.4-15.4-8 0-15 6.6-15 16 0 8 6.7 15.4 15.1 15.4 6.4 0 12-4 14.3-10.1h-5.6c-1.7 3.1-5 5-8.5 5-4.5 0-8.4-3.2-9.7-8.1zm-24.6-4.3c.4-5.2 5-8.8 9.5-8.8 4.8 0 9.3 3.7 9.7 8.8zm-11.3 16.7V13.6h-5.6v4.2h-.1q-3.6-5-10.4-5c-8.7 0-15.5 6.7-15.5 16.2 0 8.6 7 15.2 15.8 15.2 4.2 0 8-1.9 10-5.4h.2v4.6zM256 39.1c-5.6 0-10.2-5-10.2-10.5 0-5.9 4.6-10.7 10.2-10.7 6.2 0 10.4 4.9 10.4 10.7 0 5.6-4.6 10.5-10.4 10.5m-22.8 4.3V18.8h4.9v-5.2h-5v-10h-5.5v10h-4v5.2h4v24.6zm-13.8-29.8H214v29.8h5.5zm0-10H214v6.6h5.5zm-23.9 39.8 16-39.8h-6.1l-11.6 29.9-11.6-29.9H176l16 39.8z"/><path fill="#012573" d="M171.8 43.4V25.6c0-8.2-5.3-12.8-12.4-12.8q-5.3-.1-8.7 4h-.1v-3.2h-5.2v29.8h5.5V27.1c0-5.6 3-9.2 7.9-9.2q7.4 0 7.4 9.3v16.2zM139.7 31l.1-2.8c0-8.6-6.6-15.4-15.4-15.4-8 0-15 6.6-15 16 0 8 6.8 15.4 15.2 15.4 6.3 0 12-4 14.3-10.1h-5.6c-1.8 3.1-5 5-8.5 5-4.6 0-8.5-3.2-9.8-8.1zM115 26.7c.4-5.2 5-8.8 9.6-8.8 4.7 0 9.2 3.7 9.6 8.8zM107 43.4v-5H92.5L106 19v-5.5H87v5.2h12.9L85.6 39v4.3zM81 13.6h-5.6v29.8H81zm0-10h-5.6v6.6H81zM66.8 43.4V18.8h4.8v-5.2h-4.8v-10h-5.6v10h-4v5.2h4v24.6zM53 13.6h-5.5v29.8H53zm0-10h-5.5v6.6H53zM38 10 21 0 0 12.2v24.2l21.1 12.1 18.4-10.7-5-3-13.6 8-16-9.3V15l16.2-9.3L35.3 14z"/><path fill="#e23428" d="m8 24.5 7.6-11.6 3.6 2.3 5.6 14.2L42.4 3l3.7 2.4L25 37l-3-2-5.8-15-4.6 6.9z"/></svg>