<svg width="401" height="64" viewBox="0 0 401 64" fill="none" xmlns="http://www.w3.org/2000/svg">
<path d="M400.789 40.2976C401 38.9686 401 37.8482 401 36.6591C401 25.5331 392.32 16.7167 380.909 16.7167C370.62 16.7167 361.38 25.2532 361.38 37.4988C361.38 47.8546 370.2 57.5107 381.12 57.5107C389.449 57.5107 396.729 52.3328 399.74 44.356H392.46C390.22 48.4839 385.949 50.8639 381.4 50.8639C375.449 50.8639 370.34 46.7351 368.66 40.2976H400.789ZM368.66 34.6999C369.22 28.053 375.169 23.3645 381.12 23.3645C387.349 23.3645 393.16 28.1226 393.72 34.6999H368.66ZM353.96 56.5311V17.7667H346.679V23.2245H346.539C343.53 18.8158 338.77 16.7167 333.099 16.7167C321.69 16.7167 312.799 25.3932 312.799 37.7787C312.799 48.9742 322.039 57.5107 333.379 57.5107C338.91 57.5107 343.81 55.1317 346.539 50.5135H346.679V56.5311H353.96ZM333.31 50.8639C326.03 50.8639 320.079 44.496 320.079 37.2189C320.079 29.5924 326.03 23.3645 333.31 23.3645C341.359 23.3645 346.819 29.6619 346.819 37.2189C346.819 44.5655 340.87 50.8639 333.31 50.8639ZM303.56 56.5311V24.4136H309.93V17.7667H303.56V4.75195H296.28V17.7667H291.03V24.4136H296.28V56.5311H303.56ZM285.711 17.7667H278.431V56.5311H285.711V17.7667ZM285.711 4.75195H278.431V13.2885H285.711V4.75195ZM254.561 56.5311L275.351 4.75195H267.371L252.321 43.5859L237.27 4.75195H229.15L250.01 56.5311H254.561Z" fill="#EF1C0E"/>
<path d="M223.69 56.5311V33.3005C223.69 22.5952 216.83 16.7176 207.52 16.7176C203.04 16.7176 199.05 18.1866 196.18 21.8955H196.04V17.7667H189.25V56.5311H196.53V35.3301C196.53 28.053 200.38 23.3645 206.75 23.3645C213.19 23.3645 216.41 27.2134 216.41 35.3996V56.5311H223.69ZM181.83 40.2976C182.04 38.9686 182.04 37.8491 182.04 36.6591C182.04 25.534 173.36 16.7176 161.949 16.7176C151.66 16.7176 142.42 25.2541 142.42 37.4988C142.42 47.8546 151.24 57.5107 162.16 57.5107C170.489 57.5107 177.77 52.3328 180.78 44.356H173.5C171.26 48.4848 166.989 50.8639 162.44 50.8639C156.489 50.8639 151.38 46.7351 149.7 40.2976H181.83ZM149.7 34.6999C150.26 28.053 156.209 23.3645 162.16 23.3645C168.389 23.3645 174.2 28.1226 174.76 34.6999H149.7ZM139.48 56.5311V49.8843H120.44L138.01 24.8343V17.7667H113.23V24.4145H130.03L111.41 50.8639V56.5311H139.48ZM105.461 17.7667H98.1806V56.5311H105.461V17.7667ZM105.461 4.75195H98.1806V13.2885H105.461V4.75195ZM86.911 56.5311V24.4145H93.2805V17.7667H86.911V4.75195H79.6309V17.7667H74.3805V24.4145H79.6309V56.5311H86.911ZM69.0623 17.7667H61.7822V56.5311H69.0623V17.7667ZM69.0623 4.75195H61.7822V13.2885H69.0623V4.75195Z" fill="#0A51EC"/>
<path d="M49.4647 12.9674L27.2561 0L0 15.8405V47.3289L27.489 63.2086L51.4445 49.1535L44.9608 45.3485L27.2561 55.6763L6.44516 43.6016V19.607L27.489 7.53168L46.0089 18.3254L49.4647 12.9674Z" fill="#0A51EC"/>
<path d="M10.3281 31.8367L20.3453 16.7336L25.043 19.8006L32.3423 38.2819L55.2498 3.84326L59.9867 6.98788L32.7306 48.1438L28.8094 45.5812L21.1995 25.9743L15.1817 34.982L10.3281 31.8367Z" fill="#EF1C0E"/>
</svg>
